<svg width="58" height="58" viewBox="0 0 58 58" fill="none" xmlns="http://www.w3.org/2000/svg">
<g filter="url(#filter0_d_2_2377)">
<path d="M13.0909 0C8.07803 0 4 4.07803 4 9.09091V40.9091C4 45.922 8.07803 50 13.0909 50H44.9091C49.922 50 54 45.922 54 40.9091V9.09091C54 4.07803 49.922 0 44.9091 0H13.0909ZM13.0909 1.51515H44.9091C49.0864 1.51515 52.4848 4.91364 52.4848 9.09091V40.9091C52.4848 45.0864 49.0864 48.4848 44.9091 48.4848H13.0909C8.91364 48.4848 5.51515 45.0864 5.51515 40.9091V9.09091C5.51515 4.91364 8.91364 1.51515 13.0909 1.51515ZM17.2576 4.54545C12.4538 4.54545 8.54545 8.45379 8.54545 13.2576V36.7424C8.54545 41.5462 12.4538 45.4545 17.2576 45.4545H22.9216H35.8004H40.7424C45.5462 45.4545 49.4545 41.5462 49.4545 36.7424V25.3788C49.4545 25.1697 49.2848 25 49.0758 25C48.8667 25 48.697 25.1697 48.697 25.3788V36.7424C48.697 41.1288 45.1288 44.697 40.7424 44.697H36.1792V38.3745C36.1792 36.698 35.3935 35.1273 34.1003 34.0909H34.6256C40.0597 34.0909 44.48 29.6864 44.48 24.272C44.48 21.8197 43.5711 19.4778 41.9158 17.6565C42.1658 16.0929 42.1699 13.7453 41.4615 11.6226C41.4093 11.468 41.2649 11.3636 41.102 11.3636C38.033 11.3636 35.4418 13.4008 34.3607 14.3939H24.9606C22.3091 11.8909 19.9186 11.3636 18.3762 11.3636C18.2133 11.3636 18.0689 11.468 18.0166 11.6226C17.4348 13.3658 17.1791 15.452 17.3375 17.1209C15.3685 18.98 14.2435 21.575 14.2435 24.2735C14.2435 29.6871 18.6631 34.0909 24.0965 34.0909H24.6025C23.6018 34.8727 22.8852 35.9478 22.6109 37.1183C21.098 37.094 19.3636 36.87 18.5537 35.6549C16.7166 32.8973 15.7899 32.6912 14.5868 32.6912C14.0846 32.6912 13.7065 32.9108 13.5481 33.2934C13.3254 33.8297 13.5852 34.5438 14.2435 35.2021C15.1314 36.0908 15.1323 36.0897 16.0369 37.898C16.5838 38.992 18.1512 40.8054 22.5429 40.9047V44.697H17.2576C12.8712 44.697 9.30303 41.1288 9.30303 36.7424V13.2576C9.30303 8.87121 12.8712 5.30303 17.2576 5.30303H40.7424C40.9515 5.30303 41.1212 5.13333 41.1212 4.92424C41.1212 4.71515 40.9515 4.54545 40.7424 4.54545H17.2576ZM18.6499 12.1271C20.0651 12.1908 22.1494 12.7654 24.4812 14.9828L24.5507 15.0494C24.6212 15.1153 24.7134 15.1515 24.8097 15.1515H34.5102C34.6064 15.1515 34.7075 15.1079 34.778 15.042C35.681 14.1913 38.0388 12.2499 40.8282 12.1271C41.4335 14.1309 41.3898 16.3067 41.1375 17.7113C41.1163 17.8302 41.1526 17.9512 41.2351 18.0383C42.8382 19.7368 43.7224 21.9508 43.7224 24.272C43.7224 29.2682 39.6415 33.3333 34.6256 33.3333H32.7701C32.5921 33.3333 32.4381 33.4573 32.4002 33.6307C32.3616 33.8042 32.4497 33.9812 32.6118 34.0554C34.3179 34.838 35.4216 36.5328 35.4216 38.3745V44.697H23.3004V40.5303C23.3004 40.3212 23.1307 40.1515 22.9216 40.1515C19.7542 40.1515 17.5494 39.2304 16.7145 37.5592C15.7729 35.6766 15.7542 35.6415 14.7792 34.6665C14.2708 34.1574 14.1828 33.7395 14.248 33.5834C14.2957 33.466 14.4808 33.4487 14.5868 33.4487C15.4376 33.4487 16.1727 33.4486 17.9234 36.0751C18.9893 37.6728 21.1542 37.8788 22.9216 37.8788C23.1072 37.8788 23.265 37.744 23.2945 37.5607C23.5354 36.0841 24.6133 34.7417 26.1088 34.0569C26.2709 33.9826 26.3605 33.8057 26.3219 33.6322C26.284 33.458 26.13 33.3333 25.9519 33.3333H24.098C19.0828 33.3333 15.0011 29.2682 15.0011 24.272C15.0011 21.7228 16.09 19.272 17.9885 17.5485C18.0787 17.466 18.1257 17.3457 18.1113 17.2245C17.9378 15.7343 18.1484 13.765 18.6499 12.1271ZM49.0758 12.8788C48.8667 12.8788 48.697 13.0485 48.697 13.2576V15.9091C48.697 16.1182 48.8667 16.2879 49.0758 16.2879C49.2848 16.2879 49.4545 16.1182 49.4545 15.9091V13.2576C49.4545 13.0485 49.2848 12.8788 49.0758 12.8788ZM49.0758 18.1818C48.8667 18.1818 48.697 18.3515 48.697 18.5606V23.4848C48.697 23.6939 48.8667 23.8636 49.0758 23.8636C49.2848 23.8636 49.4545 23.6939 49.4545 23.4848V18.5606C49.4545 18.3515 49.2848 18.1818 49.0758 18.1818Z" fill="white"/>
</g>
<defs>
<filter id="filter0_d_2_2377" x="0" y="0" width="58" height="58" filterUnits="userSpaceOnUse" color-interpolation-filters="sRGB">
<feFlood flood-opacity="0" result="BackgroundImageFix"/>
<feColorMatrix in="SourceAlpha" type="matrix" values="0 0 0 0 0 0 0 0 0 0 0 0 0 0 0 0 0 0 127 0" result="hardAlpha"/>
<feOffset dy="4"/>
<feGaussianBlur stdDeviation="2"/>
<feComposite in2="hardAlpha" operator="out"/>
<feColorMatrix type="matrix" values="0 0 0 0 0 0 0 0 0 0 0 0 0 0 0 0 0 0 0.25 0"/>
<feBlend mode="normal" in2="BackgroundImageFix" result="effect1_dropShadow_2_2377"/>
<feBlend mode="normal" in="SourceGraphic" in2="effect1_dropShadow_2_2377" result="shape"/>
</filter>
</defs>
</svg>
