<svg width="1440" height="922" viewBox="0 0 1440 922" fill="none" xmlns="http://www.w3.org/2000/svg">
<g clip-path="url(#clip0_2_30)">
<path d="M1440 0H0V922H1440V0Z" fill="#EE5522"/>
<path d="M0 1844C1192.94 1844 2160 1018.41 2160 0.00012207C2160 -1018.41 1192.94 -1844 0 -1844C-1192.93 -1844 -2160 -1018.41 -2160 0.00012207C-2160 1018.41 -1192.93 1844 0 1844Z" fill="url(#paint0_radial_2_30)"/>
<g opacity="0.5">
<path d="M0 1229.33C795.29 1229.33 1440 678.942 1440 0.00012207C1440 -678.942 795.29 -1229.33 0 -1229.33C-795.29 -1229.33 -1440 -678.942 -1440 0.00012207C-1440 678.942 -795.29 1229.33 0 1229.33Z" fill="url(#paint1_radial_2_30)"/>
<path d="M0 1106.4C715.761 1106.4 1296 611.048 1296 0.00012207C1296 -611.048 715.761 -1106.4 0 -1106.4C-715.761 -1106.4 -1296 -611.048 -1296 0.00012207C-1296 611.048 -715.761 1106.4 0 1106.4Z" fill="url(#paint2_radial_2_30)"/>
<path d="M0 1044.93C675.997 1044.93 1224 577.101 1224 0.00012207C1224 -577.101 675.997 -1044.93 0 -1044.93C-675.997 -1044.93 -1224 -577.101 -1224 0.00012207C-1224 577.101 -675.997 1044.93 0 1044.93Z" fill="url(#paint3_radial_2_30)"/>
<path d="M0 1014.81C656.512 1014.81 1188.72 560.467 1188.72 0.00012207C1188.72 -560.467 656.512 -1014.81 0 -1014.81C-656.512 -1014.81 -1188.72 -560.467 -1188.72 0.00012207C-1188.72 560.467 -656.512 1014.81 0 1014.81Z" fill="url(#paint4_radial_2_30)"/>
<path d="M0 891.267C576.585 891.267 1044 492.233 1044 0C1044 -492.233 576.585 -891.267 0 -891.267C-576.585 -891.267 -1044 -492.233 -1044 0C-1044 492.233 -576.585 891.267 0 891.267Z" fill="url(#paint5_radial_2_30)"/>
<path d="M6.10352e-05 768.333C497.056 768.333 900 424.339 900 6.10352e-05C900 -424.339 497.056 -768.333 6.10352e-05 -768.333C-497.056 -768.333 -900 -424.339 -900 6.10352e-05C-900 424.339 -497.056 768.333 6.10352e-05 768.333Z" fill="url(#paint6_radial_2_30)"/>
<path d="M6.10352e-05 722.233C467.233 722.233 846 398.879 846 0.00012207C846 -398.878 467.233 -722.233 6.10352e-05 -722.233C-467.233 -722.233 -846 -398.878 -846 0.00012207C-846 398.879 -467.233 722.233 6.10352e-05 722.233Z" fill="url(#paint7_radial_2_30)"/>
<path d="M0 553.2C357.881 553.2 648 305.524 648 0.00012207C648 -305.524 357.881 -553.2 0 -553.2C-357.88 -553.2 -648 -305.524 -648 0.00012207C-648 305.524 -357.88 553.2 0 553.2Z" fill="url(#paint8_radial_2_30)"/>
<path d="M0 461C298.234 461 540 254.603 540 9.15527e-05C540 -254.603 298.234 -461 0 -461C-298.234 -461 -540 -254.603 -540 9.15527e-05C-540 254.603 -298.234 461 0 461Z" fill="url(#paint9_radial_2_30)"/>
<path d="M0 307.333C198.823 307.333 360 169.736 360 0.000152588C360 -169.735 198.823 -307.333 0 -307.333C-198.822 -307.333 -360 -169.735 -360 0.000152588C-360 169.736 -198.822 307.333 0 307.333Z" fill="url(#paint10_radial_2_30)"/>
<path d="M3.05176e-05 233.573C151.105 233.573 273.6 128.999 273.6 7.62939e-05C273.6 -128.999 151.105 -233.573 3.05176e-05 -233.573C-151.105 -233.573 -273.6 -128.999 -273.6 7.62939e-05C-273.6 128.999 -151.105 233.573 3.05176e-05 233.573Z" fill="url(#paint11_radial_2_30)"/>
<path d="M0 153.667C99.4113 153.667 180 84.8679 180 0.000167847C180 -84.8676 99.4113 -153.667 0 -153.667C-99.4112 -153.667 -180 -84.8676 -180 0.000167847C-180 84.8679 -99.4112 153.667 0 153.667Z" fill="url(#paint12_radial_2_30)"/>
</g>
<path d="M41.4916 106.715C33.1067 108.982 24.5113 110.594 15.8688 111.514C7.2235 112.428 -1.46052 112.646 -10.0337 112.168C-18.607 111.69 -27.061 110.513 -35.2464 108.682C-43.4346 106.843 -51.3457 104.347 -58.8497 101.237C-66.3536 98.1266 -73.4476 94.4086 -80.007 90.1584C-86.5691 85.9013 -92.5883 81.1093 -97.9565 75.8631C-103.325 70.617 -108.05 64.9192 -112.039 58.8859C-116.033 52.839 -119.288 46.4632 -121.784 39.8754C-118.947 46.3542 -115.366 52.5639 -111.086 58.3889C-106.815 64.2166 -101.848 69.6528 -96.2917 74.6004C-90.7323 79.5549 -84.5829 84.0208 -77.9682 87.9229C-71.3507 91.8317 -64.2567 95.1808 -56.8331 97.9095C-49.4067 100.645 -41.6396 102.764 -33.6952 104.235C-25.7397 105.71 -17.5986 106.533 -9.4104 106.689C-1.22221 106.844 6.99923 106.343 15.1154 105.191C23.2316 104.04 31.2315 102.234 38.9876 99.8299C41.2895 99.1166 43.6772 100.113 44.4168 101.998C45.1564 103.882 43.9763 105.943 41.6661 106.659C41.6079 106.678 41.558 106.694 41.4971 106.705L41.4916 106.715Z" fill="url(#paint13_linear_2_30)"/>
<path d="M206.932 67.6966C201.034 79.1625 193.922 90.1838 185.724 100.545C177.513 110.901 168.22 120.586 158.008 129.433C147.797 138.28 136.672 146.279 124.866 153.311C113.046 160.34 100.551 166.39 87.5879 171.365C74.6248 176.34 61.2072 180.243 47.5861 183.016C33.9517 185.785 20.1189 187.413 6.32815 187.864C-7.46261 188.315 -21.2166 187.602 -34.6562 185.741C-48.1223 183.872 -61.2607 180.859 -73.8754 176.801C-61.0462 180.376 -47.794 182.862 -34.3437 184.192C-20.8986 185.534 -7.26876 185.715 6.28433 184.752C19.8506 183.792 33.3402 181.687 46.502 178.496C59.6772 175.308 72.5431 171.025 84.8466 165.745C97.1633 160.469 108.936 154.188 119.935 147.047C130.953 139.898 141.203 131.877 150.506 123.118C159.808 114.358 168.167 104.887 175.436 94.8614C182.705 84.8361 188.867 74.2641 193.864 63.3422C195.347 60.101 199.482 58.5248 203.119 59.6579C206.756 60.7909 208.53 64.1961 207.042 67.4491C207.005 67.5316 206.974 67.6023 206.924 67.6808L206.932 67.6966Z" fill="url(#paint14_linear_2_30)"/>
<path d="M171.946 183.681C157.322 193.106 141.728 201.387 125.455 208.356C109.17 215.313 92.221 220.946 74.9003 225.164C57.5795 229.381 39.9017 232.171 22.1995 233.532C4.486 234.881 -13.2377 234.789 -30.6785 233.262C-48.1192 231.735 -65.2658 228.784 -81.8084 224.481C-98.3621 220.166 -114.298 214.488 -129.334 207.54C-144.37 200.592 -158.52 192.383 -171.501 183.081C-184.504 173.756 -196.326 163.35 -206.831 152.078C-195.746 162.934 -183.42 172.822 -170.041 181.546C-156.677 190.279 -142.273 197.837 -127.118 204.094C-111.952 210.362 -96.0361 215.329 -79.6792 218.924C-63.3111 222.531 -46.477 224.767 -29.518 225.602C-12.5478 226.449 4.57269 225.897 21.4936 223.981C38.44 222.067 55.2009 218.78 71.4886 214.168C87.7764 209.557 103.574 203.653 118.613 196.552C133.652 189.451 147.907 181.151 161.174 171.837C165.111 169.074 170.667 169.572 173.722 172.782C176.778 175.991 176.195 180.694 172.243 183.468C172.144 183.539 172.059 183.599 171.949 183.659L171.946 183.681Z" fill="url(#paint15_linear_2_30)"/>
<path d="M339.039 -40.4318C341.063 -22.6188 341.021 -4.57698 338.894 13.3488C336.745 31.2781 332.509 49.0735 326.265 66.4292C320.02 83.7849 311.764 100.683 301.713 116.832C291.639 132.984 279.767 148.369 266.296 162.735C252.826 177.101 237.78 190.443 221.451 202.531C205.101 214.622 187.466 225.44 168.847 234.791C150.227 244.142 130.627 252.042 110.443 258.335C90.2153 264.635 69.4263 269.324 48.4338 272.399C69.2939 268.595 89.7731 263.188 109.501 256.237C129.232 249.304 148.191 240.832 166.029 231.005C183.888 221.175 200.627 209.99 215.951 197.683C231.297 185.372 245.247 171.916 257.537 157.598C269.849 143.276 280.52 128.069 289.363 112.301C298.224 96.5124 305.254 80.145 310.322 63.4764C315.391 46.8079 318.527 29.8702 319.67 12.948C320.813 -3.97427 319.944 -20.8597 317.159 -37.431C316.333 -42.3491 320.639 -46.9182 326.659 -47.8501C332.679 -48.782 338.142 -45.741 338.972 -40.8052C338.994 -40.6807 339.014 -40.574 339.014 -40.446L339.039 -40.4318Z" fill="url(#paint16_linear_2_30)"/>
<path d="M433.43 -118.589C441.076 -95.6695 446.065 -72.0534 448.279 -48.189C450.464 -24.3158 449.864 -0.216826 446.497 23.6924C443.13 47.6016 436.987 71.2984 428.271 94.3596C419.526 117.43 408.2 139.841 394.484 161.226C380.768 182.61 364.692 202.958 346.577 221.91C328.434 240.872 308.243 258.415 286.347 274.226C264.45 290.037 240.856 304.138 216.045 316.249C191.178 328.377 165.122 338.505 138.346 346.56C164.744 337.577 190.191 326.568 214.219 313.685C238.255 300.824 260.844 286.097 281.578 269.813C302.34 253.52 321.249 235.671 337.98 216.623C354.74 197.567 369.341 177.282 381.516 156.186C393.719 135.081 403.515 113.133 410.746 90.803C417.996 68.4414 422.673 45.6746 424.684 22.8903C426.695 0.105946 426.087 -22.6594 422.859 -45.0217C419.631 -67.384 413.765 -89.3119 405.464 -110.461C403.002 -116.737 407.392 -123.543 415.057 -125.919C422.722 -128.294 430.764 -125.364 433.236 -119.065C433.301 -118.906 433.356 -118.77 433.393 -118.603L433.43 -118.589Z" fill="url(#paint17_linear_2_30)"/>
<path d="M473.331 243.88C453.131 269.997 430.178 294.556 404.889 317.07C379.57 339.57 351.934 359.998 322.463 378.01C292.992 396.022 261.705 411.589 229.231 424.511C196.725 437.417 163.051 447.65 128.767 455.047C94.4833 462.444 59.6205 467.02 24.8232 468.726C-10.0046 470.416 -44.7482 469.209 -78.8006 465.11C-112.853 461.011 -146.233 454.047 -178.268 444.364C-210.364 434.651 -241.084 422.234 -269.998 407.432C-240.317 421.12 -209.054 432.278 -176.727 440.652C-144.419 449.053 -111.078 454.656 -77.352 457.399C-43.596 460.157 -9.45582 460.054 24.4242 457.14C58.3347 454.241 92.0342 448.519 124.853 440.118C157.701 431.732 189.718 420.656 220.269 407.16C250.868 393.652 280.02 377.698 307.218 359.559C334.415 341.42 359.652 321.166 382.495 299.129C405.337 277.093 425.737 253.286 443.454 228.174C448.713 220.721 459.643 218.388 467.998 222.565C476.354 226.741 479.002 235.831 473.725 243.31C473.594 243.5 473.481 243.663 473.32 243.838L473.331 243.88Z" fill="url(#paint18_linear_2_30)"/>
<path d="M207.458 533.574C165.534 544.91 122.557 552.971 79.3443 557.571C36.118 562.137 -7.30215 563.23 -50.1682 560.841C-93.0343 558.451 -135.305 552.566 -176.232 543.408C-217.173 534.215 -256.728 521.736 -294.248 506.184C-331.768 490.633 -367.238 472.043 -400.034 450.791C-432.845 429.506 -462.941 405.546 -489.782 379.315C-516.623 353.084 -540.251 324.596 -560.195 294.429C-580.166 264.195 -596.439 232.316 -608.918 199.377C-594.736 231.771 -576.828 262.819 -555.43 291.944C-534.074 321.083 -509.241 348.263 -481.458 373.002C-453.661 397.774 -422.914 420.104 -389.84 439.614C-356.753 459.158 -321.283 475.904 -284.165 489.547C-247.033 503.224 -208.197 513.82 -168.475 521.174C-128.698 528.548 -87.9925 532.666 -47.0515 533.442C-6.11058 534.219 34.9966 531.714 75.5776 525.957C116.159 520.2 156.158 511.171 194.938 499.149C206.448 495.583 218.387 500.564 222.084 509.988C225.782 519.411 219.882 529.715 208.331 533.295C208.04 533.388 207.791 533.467 207.486 533.526L207.458 533.574Z" fill="url(#paint19_linear_2_30)"/>
<path d="M724.262 236.937C703.617 277.068 678.728 315.643 650.035 351.905C621.295 388.154 588.77 422.05 553.03 453.015C517.289 483.981 478.352 511.976 437.031 536.589C395.663 561.188 351.929 582.364 306.558 599.776C261.187 617.188 214.225 630.849 166.551 640.555C118.831 650.247 70.4164 655.944 22.1487 657.524C-26.119 659.103 -74.258 656.607 -121.297 650.093C-168.428 643.552 -214.412 633.007 -258.564 618.804C-213.662 631.315 -167.279 640.017 -120.203 644.671C-73.1451 649.367 -25.4405 650.003 21.9953 646.63C69.4774 643.272 116.691 635.905 162.757 624.734C208.87 613.577 253.901 598.587 296.963 580.108C340.072 561.642 381.276 539.659 419.774 514.665C458.337 489.644 494.211 461.57 526.77 430.911C559.33 400.252 588.584 367.103 614.026 332.014C639.468 296.926 661.034 259.924 678.524 221.697C683.715 210.353 698.187 204.836 710.917 208.802C723.648 212.768 729.857 224.686 724.646 236.071C724.518 236.36 724.408 236.607 724.234 236.882L724.262 236.937Z" fill="url(#paint20_linear_2_30)"/>
<path d="M839.86 -375.089C865.559 -330.5 886.08 -283.677 900.981 -235.502C915.829 -187.3 925.027 -137.79 928.435 -87.8268C931.843 -37.8635 929.432 12.5089 921.436 62.3625C913.387 112.243 899.725 161.561 880.689 209.502C861.654 257.443 837.298 303.98 808.133 348.281C778.914 392.608 744.858 434.655 706.53 473.675C668.203 512.696 625.634 548.732 579.692 581.064C533.642 613.449 484.273 642.102 432.521 666.73C483.09 640.317 530.823 610.047 574.814 576.371C618.833 542.739 659.057 505.727 694.782 466.093C730.56 426.431 761.839 384.147 788.109 340.073C814.432 295.972 835.77 250.011 851.752 203.128C867.788 156.218 878.493 108.316 883.741 60.4102C889.015 12.4344 888.803 -35.5887 883.085 -82.8372C877.367 -130.086 866.253 -176.499 849.91 -221.291C833.566 -266.083 811.969 -309.184 785.685 -349.95C777.886 -362.049 783.997 -377.314 798.781 -384.506C813.565 -391.699 831.427 -388.147 839.254 -376.004C839.456 -375.699 839.629 -375.438 839.778 -375.107L839.86 -375.089Z" fill="url(#paint21_linear_2_30)"/>
<path d="M619.007 661.25C566.361 695.181 510.222 724.995 451.638 750.081C393.014 775.126 331.996 795.407 269.641 810.589C207.287 825.771 143.646 835.817 79.9183 840.714C16.1498 845.57 -47.6556 845.24 -110.442 839.743C-173.229 834.245 -234.957 823.622 -294.51 808.13C-354.104 792.597 -411.472 772.158 -465.601 747.144C-519.73 722.13 -570.671 692.577 -617.402 659.09C-664.214 625.521 -706.775 588.06 -744.591 547.479C-704.687 586.563 -660.311 622.16 -612.149 653.565C-564.039 685.005 -512.183 712.213 -457.626 734.737C-403.029 757.303 -345.73 775.185 -286.845 788.128C-227.92 801.111 -167.317 809.16 -106.265 812.167C-45.1718 815.216 16.4618 813.229 77.3773 806.333C138.384 799.442 198.723 787.606 257.359 771.005C315.995 754.403 372.866 733.151 427.006 707.587C481.146 682.023 532.464 652.143 580.226 618.614C594.401 608.665 614.4 610.46 625.401 622.014C636.401 633.569 634.303 650.498 620.076 660.483C619.72 660.739 619.414 660.958 619.017 661.172L619.007 661.25Z" fill="url(#paint22_linear_2_30)"/>
<path d="M936.24 584.534C888.52 636.096 835.383 683.957 777.804 727.163C720.165 770.333 658.128 808.792 592.773 841.895C527.419 874.997 458.792 902.687 388.247 924.641C317.642 946.559 245.162 962.687 172.013 972.772C98.8633 982.856 25.1041 986.934 -47.9089 985.004C-120.982 983.037 -193.265 975.009 -263.49 961.026C-333.716 947.043 -401.929 927.159 -466.756 901.787C-531.705 876.342 -593.207 845.446 -650.431 809.835C-591.368 843.233 -528.466 871.574 -462.751 894.248C-397.081 916.975 -328.659 933.999 -258.828 945.087C-188.937 956.21 -117.636 961.397 -46.2821 960.649C25.1328 959.936 96.7067 953.27 167.01 940.849C237.373 928.464 306.571 910.306 373.22 886.844C439.975 863.363 504.226 834.525 564.861 800.796C625.496 767.067 682.487 728.593 734.858 686.002C787.228 643.412 834.873 596.723 877.196 546.873C889.758 532.08 913.073 528.917 929.631 538.996C946.189 549.076 949.789 568.553 937.182 583.4C936.868 583.778 936.599 584.102 936.224 584.444L936.24 584.534Z" fill="url(#paint23_linear_2_30)"/>
<path d="M1258.26 368.511C1225.62 438.296 1185.59 505.64 1138.88 569.226C1092.09 632.79 1038.65 692.523 979.504 747.41C920.353 802.296 855.519 852.264 786.366 896.567C717.132 940.849 643.607 979.396 567.019 1011.58C490.431 1043.77 410.859 1069.62 329.794 1088.73C248.65 1107.83 166.041 1120.12 83.4028 1125.35C0.764499 1130.59 -81.9322 1128.84 -163.017 1120.15C-244.263 1111.42 -323.818 1095.78 -400.48 1073.78C-322.647 1092.85 -242.536 1105.31 -161.514 1110.81C-80.52 1116.39 1.30468 1114.97 82.3941 1106.71C163.564 1098.47 243.998 1083.39 322.207 1061.85C400.495 1040.33 476.667 1012.31 549.224 978.414C621.862 944.541 690.995 904.746 755.282 859.939C819.677 815.081 879.256 765.139 932.974 710.944C986.693 656.749 1034.57 598.466 1075.79 537.06C1117 475.655 1151.44 411.178 1178.81 344.817C1186.93 325.124 1211.36 314.921 1233.46 321.043C1255.55 327.164 1267.01 347.243 1258.86 367.008C1258.66 367.509 1258.49 367.938 1258.21 368.418L1258.26 368.511Z" fill="url(#paint24_linear_2_30)"/>
<path d="M1021.03 -945.914C1088.59 -891.643 1149.75 -831.652 1203.27 -767.044C1256.73 -702.372 1302.48 -633.134 1339.76 -560.536C1377.05 -487.937 1405.78 -412.029 1425.74 -334.298C1445.63 -256.504 1456.67 -176.938 1458.69 -96.9213C1460.71 -16.9049 1453.78 63.4979 1438.13 142.813C1422.41 222.192 1397.91 300.431 1365.01 376.159C1332.1 451.888 1290.85 525.156 1242.12 594.49C1193.26 663.952 1136.98 729.415 1074.5 790.007C1134.04 727.313 1186.81 660.209 1231.72 589.786C1276.71 519.415 1313.78 445.788 1342.35 370.356C1370.99 294.859 1391.14 217.557 1402.55 139.922C1414.03 62.2238 1416.76 -15.9217 1410.8 -92.95C1404.91 -170.042 1390.3 -246.133 1367.45 -319.696C1344.58 -393.375 1313.38 -464.577 1274.35 -532.072C1235.32 -599.568 1188.66 -663.318 1135.13 -722.233C1081.59 -781.149 1021.2 -835.114 955.216 -883.436C935.636 -897.779 935.068 -923.28 952.814 -940.823C970.561 -958.366 999.873 -961.385 1019.53 -946.99C1020.03 -946.632 1020.46 -946.324 1020.89 -945.901L1021.03 -945.914Z" fill="url(#paint25_linear_2_30)"/>
<path d="M1571.18 -429.886C1598.9 -346.802 1616.99 -261.194 1625.01 -174.685C1632.93 -88.1448 1630.76 -0.786092 1618.55 85.8848C1606.35 172.556 1584.08 258.457 1552.48 342.053C1520.78 425.682 1479.72 506.925 1430 584.443C1380.29 661.961 1322.01 735.722 1256.34 804.425C1190.57 873.159 1117.38 936.753 1038.01 994.068C958.631 1051.38 873.103 1102.5 783.163 1146.4C693.021 1190.37 598.567 1227.08 501.505 1256.28C597.196 1223.72 689.444 1183.81 776.543 1137.11C863.675 1090.49 945.558 1037.1 1020.72 978.072C1095.98 919.011 1164.53 854.306 1225.18 785.26C1285.93 716.181 1338.86 642.647 1383 566.173C1427.23 489.667 1462.74 410.107 1488.95 329.161C1515.24 248.1 1532.19 165.57 1539.48 82.9771C1546.77 0.383994 1544.56 -82.1402 1532.86 -163.204C1521.16 -244.267 1499.9 -323.756 1469.81 -400.42C1460.88 -423.173 1476.8 -447.844 1504.58 -456.455C1532.37 -465.066 1561.52 -454.445 1570.48 -431.61C1570.72 -431.035 1570.92 -430.543 1571.05 -429.936L1571.18 -429.886Z" fill="url(#paint26_linear_2_30)"/>
<path d="M1655.46 541.571C1608.27 633.299 1551.38 721.469 1485.79 804.355C1420.1 887.209 1345.76 964.685 1264.07 1035.46C1182.38 1106.24 1093.38 1170.23 998.927 1226.49C904.372 1282.72 804.409 1331.12 700.704 1370.92C596.999 1410.71 489.658 1441.94 380.689 1464.13C271.614 1486.28 160.952 1499.3 50.6256 1502.91C-59.7004 1506.52 -169.732 1500.82 -277.249 1485.93C-384.978 1470.98 -490.085 1446.87 -591.003 1414.41C-488.369 1443.01 -382.352 1462.89 -274.749 1473.53C-167.189 1484.27 -58.1496 1485.72 50.275 1478.01C158.806 1470.34 266.722 1453.5 372.017 1427.96C477.418 1402.46 580.345 1368.2 678.773 1325.96C777.307 1283.75 871.488 1233.51 959.484 1176.38C1047.63 1119.19 1129.63 1055.02 1204.05 984.94C1278.47 914.861 1345.33 839.093 1403.49 758.89C1461.64 678.687 1510.94 594.112 1550.91 506.737C1562.78 480.807 1595.86 468.197 1624.95 477.261C1654.05 486.326 1668.24 513.567 1656.33 539.591C1656.04 540.251 1655.79 540.817 1655.39 541.445L1655.46 541.571Z" fill="url(#paint27_linear_2_30)"/>
<path d="M-133.701 -3.67942C-132.962 -10.7587 -131.439 -17.8175 -129.154 -24.7199C-126.861 -31.6225 -123.806 -38.3616 -120.045 -44.8217C-116.284 -51.2818 -111.816 -57.4556 -106.746 -63.2407C-101.668 -69.0259 -95.9886 -74.4152 -89.8025 -79.3204C-83.6165 -84.2255 -76.9325 -88.6462 -69.8788 -92.5076C-62.8168 -96.3693 -55.3855 -99.6646 -47.7125 -102.333C-40.0395 -105.001 -32.1245 -107.049 -24.1279 -108.438C-16.1145 -109.827 -8.0279 -110.555 -0.000803848 -110.641C-8.0398 -110.263 -16.0718 -109.237 -23.9546 -107.567C-31.8372 -105.904 -39.5622 -103.597 -46.9857 -100.701C-54.4175 -97.8047 -61.5477 -94.3186 -68.248 -90.3176C-74.9567 -86.3164 -81.2441 -81.793 -86.9895 -76.8434C-92.7432 -71.8936 -97.9635 -66.5103 -102.554 -60.8101C-107.153 -55.1025 -111.122 -49.071 -114.391 -42.8173C-117.659 -36.5635 -120.235 -30.1015 -122.072 -23.5395C-123.909 -16.9775 -124.998 -10.3227 -125.351 -3.68892C-125.457 -1.72017 -127.432 -0.161187 -129.738 -0.11698C-132.044 -0.0727732 -133.813 -1.5538 -133.707 -3.52968C-133.705 -3.5796 -133.703 -3.62238 -133.693 -3.67253L-133.701 -3.67942Z" fill="url(#paint28_linear_2_30)"/>
<path d="M-154.3 141.967C-164.357 133.905 -173.447 124.977 -181.386 115.346C-189.316 105.706 -196.084 95.3703 -201.579 84.5198C-207.073 73.6692 -211.283 62.3112 -214.173 50.6687C-217.054 39.0164 -218.606 27.0872 -218.805 15.0792C-219.004 3.07108 -217.861 -9.00623 -215.413 -20.9311C-212.955 -32.8657 -209.181 -44.6402 -204.15 -56.0483C-199.119 -67.4564 -192.842 -78.5057 -185.447 -88.9738C-178.034 -99.4613 -169.512 -109.358 -160.069 -118.531C-169.075 -109.046 -177.071 -98.9076 -183.895 -88.2808C-190.729 -77.6617 -196.381 -66.5638 -200.762 -55.2055C-205.152 -43.8375 -208.272 -32.209 -210.083 -20.5417C-211.904 -8.86468 -212.416 2.86853 -211.622 14.4232C-210.838 25.9875 -208.748 37.3906 -205.416 48.4039C-202.084 59.4346 -197.5 70.0832 -191.736 80.1656C-185.973 90.248 -179.061 99.7586 -171.113 108.535C-163.166 117.311 -154.183 125.336 -144.354 132.507C-141.438 134.635 -141.386 138.462 -144.069 141.118C-146.751 143.773 -151.149 144.263 -154.076 142.127C-154.151 142.074 -154.215 142.028 -154.28 141.965L-154.3 141.967Z" fill="url(#paint29_linear_2_30)"/>
<path d="M-272.457 74.1781C-277.123 59.9619 -280.12 45.2993 -281.375 30.4683C-282.612 15.6316 -282.101 0.640578 -279.857 -14.2464C-277.612 -29.1334 -273.628 -43.9022 -268.035 -58.2887C-262.423 -72.6808 -255.197 -86.6764 -246.478 -100.045C-237.759 -113.414 -227.565 -126.15 -216.102 -138.028C-204.62 -149.912 -191.863 -160.925 -178.046 -170.868C-164.229 -180.812 -149.357 -189.701 -133.733 -197.358C-118.074 -205.026 -101.68 -211.456 -84.8472 -216.6C-101.448 -210.881 -117.465 -203.906 -132.602 -195.772C-147.745 -187.652 -161.99 -178.38 -175.081 -168.148C-188.189 -157.91 -200.144 -146.714 -210.741 -134.783C-221.356 -122.847 -230.623 -110.158 -238.375 -96.9758C-246.144 -83.7884 -252.408 -70.0892 -257.067 -56.1649C-261.737 -42.2209 -264.796 -28.0378 -266.184 -13.8573C-267.572 0.323242 -267.318 14.4788 -265.419 28.3705C-263.52 42.2622 -259.964 55.8705 -254.878 68.9819C-253.369 72.8733 -256.159 77.128 -260.978 78.644C-265.797 80.16 -270.824 78.3782 -272.339 74.4728C-272.378 74.3746 -272.412 74.2904 -272.434 74.1865L-272.457 74.1781Z" fill="url(#paint30_linear_2_30)"/>
<path d="M-78.4762 279.962C-98.6776 276.32 -118.344 270.938 -137.091 263.903C-155.835 256.849 -173.639 248.145 -190.2 237.945C-206.762 227.746 -222.06 216.053 -235.859 203.129C-249.653 190.185 -261.927 176.014 -272.481 160.85C-283.036 145.687 -291.875 129.551 -298.859 112.749C-305.838 95.9279 -310.941 78.444 -314.069 60.5985C-317.196 42.7529 -318.368 24.543 -317.566 6.33726C-316.755 -11.9059 -313.973 -30.1263 -309.352 -48.0329C-313.127 -30.0174 -315.008 -11.835 -314.92 6.19675C-314.852 24.2258 -312.812 42.0854 -308.868 59.4393C-304.929 76.8118 -299.086 93.6786 -291.481 109.733C-283.88 125.806 -274.501 141.087 -263.549 155.281C-252.602 169.494 -240.067 182.641 -226.225 194.473C-212.367 206.327 -197.181 216.87 -180.923 225.914C-164.664 234.958 -147.378 242.517 -129.351 248.458C-111.324 254.4 -92.5736 258.701 -73.4376 261.358C-67.7586 262.147 -64.4098 266.988 -65.6802 272.138C-66.9506 277.288 -72.3435 280.809 -78.0431 280.018C-78.1875 279.999 -78.3112 279.983 -78.4512 279.946L-78.4762 279.962Z" fill="url(#paint31_linear_2_30)"/>
<path d="M-29.3019 369.394C-56.8027 368.895 -84.046 366.152 -110.505 361.198C-136.964 356.22 -162.61 349.03 -187.006 339.759C-211.402 330.487 -234.52 319.134 -255.981 305.972C-277.441 292.786 -297.217 277.792 -314.986 261.242C-332.755 244.692 -348.519 226.61 -362.012 207.344C-375.504 188.055 -386.699 167.582 -395.389 146.276C-404.079 124.971 -410.291 102.833 -413.905 80.3116C-417.517 57.7427 -418.531 34.8142 -417.047 11.9094C-417.391 34.7816 -415.201 57.4863 -410.461 79.6185C-405.748 101.752 -398.484 123.288 -388.847 143.83C-379.211 164.395 -367.202 183.964 -353.083 202.189C-338.965 220.437 -322.711 237.363 -304.668 252.645C-286.626 267.95 -266.769 281.633 -245.531 293.445C-224.266 305.28 -201.592 315.243 -177.891 323.155C-154.19 331.066 -129.518 336.951 -104.287 340.704C-79.0565 344.456 -53.2941 346.051 -27.4469 345.551C-19.7761 345.403 -14.1307 350.69 -14.4805 357.266C-14.8304 363.842 -21.0195 369.229 -28.7181 369.378C-28.9127 369.383 -29.0795 369.388 -29.2732 369.37L-29.3019 369.394Z" fill="url(#paint32_linear_2_30)"/>
<path d="M-452.249 294.277C-472.75 270.571 -490.444 245.077 -504.963 218.271C-519.455 191.445 -530.75 163.328 -538.665 134.408C-546.58 105.489 -551.092 75.79 -552.23 45.8761C-553.341 15.9419 -551.056 -14.1843 -545.422 -44.0037C-539.788 -73.8231 -530.833 -103.315 -518.762 -131.945C-506.663 -160.595 -491.425 -188.36 -473.297 -214.75C-455.17 -241.14 -434.175 -266.178 -410.742 -289.361C-387.252 -312.585 -361.353 -333.934 -333.566 -353.149C-360.441 -332.999 -385.179 -310.856 -407.295 -287.068C-429.434 -263.302 -448.923 -237.911 -465.435 -211.403C-481.975 -184.875 -495.538 -157.229 -505.918 -129C-516.327 -100.751 -523.56 -71.877 -527.509 -42.96C-531.485 -14.0226 -532.183 15.0006 -529.645 43.5196C-527.113 72.0819 -521.323 100.163 -512.358 127.279C-503.394 154.396 -491.328 180.522 -476.351 205.215C-461.375 229.908 -443.482 253.123 -423.086 274.538C-417.033 280.893 -418.857 290.393 -426.776 295.974C-434.695 301.555 -445.708 301.134 -451.782 294.756C-451.938 294.596 -452.071 294.459 -452.198 294.279L-452.249 294.277Z" fill="url(#paint33_linear_2_30)"/>
<path d="M-668.505 -18.3969C-664.81 -53.7931 -657.195 -89.0871 -645.771 -123.599C-634.305 -158.112 -619.032 -191.808 -600.226 -224.108C-581.419 -256.409 -559.081 -287.278 -533.733 -316.203C-508.342 -345.129 -479.944 -372.076 -449.013 -396.602C-418.083 -421.127 -384.663 -443.231 -349.395 -462.538C-314.085 -481.846 -276.928 -498.323 -238.563 -511.664C-200.198 -525.005 -160.623 -535.247 -120.64 -542.189C-80.5733 -549.133 -40.1401 -552.775 -0.00462872 -553.204C-40.1996 -551.313 -80.3594 -546.183 -119.774 -537.833C-159.186 -529.519 -197.812 -517.986 -234.929 -503.505C-272.088 -489.023 -307.739 -471.593 -341.241 -451.588C-374.784 -431.582 -406.221 -408.965 -434.948 -384.217C-463.717 -359.468 -489.818 -332.551 -512.77 -304.05C-535.765 -275.512 -555.611 -245.355 -571.954 -214.086C-588.297 -182.817 -601.176 -150.507 -610.36 -117.697C-619.544 -84.8871 -624.99 -51.6135 -626.757 -18.4444C-627.283 -8.60059 -637.16 -0.805689 -648.691 -0.584656C-660.222 -0.363623 -669.063 -7.76874 -668.536 -17.6482C-668.526 -17.8977 -668.517 -18.1117 -668.465 -18.3624L-668.505 -18.3969Z" fill="url(#paint34_linear_2_30)"/>
<path d="M-540.051 496.885C-575.249 468.669 -607.063 437.42 -634.851 403.712C-662.605 369.97 -686.295 333.796 -705.526 295.819C-724.756 257.842 -739.49 218.089 -749.607 177.34C-759.69 136.557 -765.12 94.8052 -765.817 52.777C-766.515 10.7487 -762.513 -31.5219 -753.944 -73.2588C-745.341 -115.03 -732.133 -156.241 -714.525 -196.169C-696.917 -236.098 -674.947 -274.77 -649.066 -311.408C-623.118 -348.115 -593.293 -382.752 -560.241 -414.859C-591.762 -381.661 -619.749 -346.177 -643.632 -308.983C-667.552 -271.816 -687.333 -232.974 -702.667 -193.219C-718.033 -153.431 -728.952 -112.732 -735.291 -71.8961C-741.664 -31.0265 -743.455 10.0398 -740.677 50.481C-737.933 90.9561 -730.617 130.867 -718.957 169.414C-707.294 208.021 -691.249 245.291 -671.077 280.579C-650.905 315.868 -626.715 349.155 -598.897 379.872C-571.08 410.589 -539.639 438.676 -505.24 463.774C-495.033 471.223 -494.85 484.618 -504.24 493.912C-513.63 503.206 -529.022 504.92 -539.267 497.444C-539.528 497.258 -539.753 497.098 -539.98 496.877L-540.051 496.885Z" fill="url(#paint35_linear_2_30)"/>
<path d="M130.201 766.64C69.1783 774.255 7.71434 777.189 -53.013 775.343C-113.749 773.447 -173.687 766.761 -231.798 755.414C-289.909 744.067 -346.132 728.048 -399.508 707.802C-452.892 687.507 -503.369 662.975 -550.11 634.621C-596.851 606.267 -639.847 574.141 -678.359 538.877C-716.879 503.563 -750.854 465.101 -779.665 424.143C-808.476 383.186 -832.185 339.745 -850.323 294.7C-868.477 249.558 -881.052 202.862 -888.093 155.43C-878.547 202.437 -863.474 248.305 -843.021 292.197C-822.63 336.1 -796.866 377.979 -766.305 417.071C-735.735 456.212 -700.367 492.566 -660.942 525.5C-621.508 558.483 -577.947 588.084 -531.173 613.751C-484.39 639.466 -434.326 661.286 -382.051 678.834C-329.706 696.421 -275.091 709.727 -219.128 718.504C-163.166 727.281 -105.97 731.598 -48.501 731.366C8.96823 731.134 66.6413 726.313 123.558 717.167C140.449 714.455 155.312 723.522 157.502 737.116C159.692 750.71 148.437 763.7 131.484 766.422C131.056 766.495 130.689 766.557 130.253 766.581L130.201 766.64Z" fill="url(#paint36_linear_2_30)"/>
<path d="M-980.847 267.041C-997.644 215.863 -1008.43 163.077 -1012.95 109.686C-1017.4 56.2737 -1015.56 2.30594 -1007.48 -51.2871C-999.405 -104.88 -985.063 -158.048 -964.925 -209.839C-944.724 -261.651 -918.708 -312.035 -887.32 -360.163C-855.932 -408.29 -819.235 -454.14 -777.966 -496.902C-736.634 -539.684 -690.708 -579.329 -640.966 -615.126C-591.224 -650.923 -537.685 -682.923 -481.439 -710.487C-425.067 -738.093 -366.05 -761.242 -305.45 -779.762C-365.215 -759.17 -422.876 -734.061 -477.368 -704.78C-531.881 -675.549 -583.163 -642.167 -630.291 -605.332C-677.482 -568.477 -720.52 -528.17 -758.669 -485.22C-796.88 -442.25 -830.245 -396.567 -858.15 -349.113C-886.118 -301.638 -908.669 -252.321 -925.44 -202.194C-942.254 -151.995 -953.267 -100.936 -958.264 -49.8863C-963.261 1.16354 -962.345 52.1234 -955.508 102.134C-948.671 152.144 -935.872 201.134 -917.56 248.335C-912.128 262.344 -922.174 277.661 -939.523 283.118C-956.871 288.576 -974.966 282.161 -980.419 268.102C-980.561 267.748 -980.684 267.445 -980.764 267.071L-980.847 267.041Z" fill="url(#paint37_linear_2_30)"/>
<path d="M-1009.59 547.019C-1047.21 494.096 -1078.59 437.858 -1103.07 379.357C-1127.48 320.818 -1144.94 260.068 -1155.18 198.159C-1165.42 136.25 -1168.39 73.2338 -1164.28 10.29C-1160.1 -52.6922 -1148.81 -115.55 -1130.59 -177.245C-1112.37 -238.939 -1087.29 -299.431 -1055.9 -357.629C-1024.45 -415.867 -986.646 -471.759 -943.11 -524.318C-899.574 -576.878 -850.35 -626.156 -796.442 -671.163C-742.407 -716.247 -683.752 -757.023 -621.623 -793.026C-682.053 -754.919 -738.457 -712.297 -789.75 -665.816C-841.085 -619.386 -887.245 -569.134 -927.436 -516.076C-967.691 -462.98 -1001.98 -407.077 -1029.75 -349.457C-1057.59 -291.8 -1078.94 -232.336 -1093.45 -172.274C-1108.02 -112.173 -1115.77 -51.383 -1116.66 8.85129C-1117.57 69.1755 -1111.58 128.995 -1098.76 187.284C-1085.94 245.573 -1066.44 302.267 -1040.55 356.403C-1014.67 410.54 -982.378 462.03 -944.475 510.128C-933.229 524.404 -939.092 544.053 -956.822 554.534C-974.552 565.016 -997.432 562.424 -1008.72 548.097C-1009.01 547.737 -1009.26 547.43 -1009.48 547.032L-1009.59 547.019Z" fill="url(#paint38_linear_2_30)"/>
<path d="M-890.566 877.94C-952.906 831.472 -1009.65 779.64 -1059.67 723.393C-1109.62 667.086 -1152.78 606.406 -1188.41 542.413C-1224.05 478.419 -1252.09 411.154 -1272.29 341.947C-1292.43 272.68 -1304.65 201.515 -1308.78 129.633C-1312.91 57.7512 -1308.99 -14.7874 -1297.2 -86.6487C-1285.36 -158.57 -1265.58 -229.77 -1238.16 -299.002C-1210.75 -368.235 -1175.76 -435.543 -1133.92 -499.572C-1091.98 -563.721 -1043.24 -624.53 -988.786 -681.174C-1040.54 -622.742 -1086.06 -560.579 -1124.43 -495.702C-1162.87 -430.869 -1194.09 -363.383 -1217.62 -294.566C-1241.2 -225.69 -1257.09 -155.482 -1265.11 -85.2785C-1273.2 -15.0147 -1273.4 55.3491 -1265.82 124.408C-1258.29 193.527 -1242.96 261.444 -1220.27 326.803C-1197.57 392.266 -1167.45 455.214 -1130.39 514.559C-1093.33 573.903 -1049.52 629.616 -999.66 680.745C-949.805 731.873 -893.918 778.313 -833.167 819.486C-815.139 831.706 -813.891 854.618 -829.349 871.006C-844.807 887.393 -871.088 891.12 -889.182 878.856C-889.643 878.55 -890.038 878.289 -890.445 877.923L-890.566 877.94Z" fill="url(#paint39_linear_2_30)"/>
<path d="M699.243 1091.37C611.921 1130.23 520.831 1162.34 427.691 1187.03C334.505 1211.65 239.355 1228.81 143.884 1238.22C48.4135 1247.64 -47.2926 1249.27 -141.489 1243.34C-235.73 1237.34 -328.376 1223.75 -417.897 1202.8C-507.418 1181.85 -593.769 1153.61 -675.41 1118.69C-757.097 1083.7 -833.989 1041.99 -904.716 994.245C-975.444 946.499 -1040.09 892.763 -1097.37 834.133C-1154.74 775.366 -1204.69 711.773 -1246.76 644.59C-1201.18 710.011 -1148 771.247 -1087.98 827.122C-1028.04 883.041 -961.319 933.531 -889.177 977.719C-816.99 1021.98 -739.386 1059.93 -657.905 1090.98C-576.379 1122.1 -490.844 1146.34 -403.052 1163.29C-315.215 1180.3 -224.989 1190.06 -134.246 1192.48C-43.3714 1194.93 48.1058 1190 138.623 1177.74C229.139 1165.49 318.57 1146.06 405.402 1119.76C492.235 1093.45 576.338 1060.25 656.432 1020.98C680.203 1009.33 708.703 1016.06 721.019 1035.24C733.334 1054.42 724.899 1078.77 701.042 1090.47C700.442 1090.77 699.929 1091.03 699.284 1091.26L699.243 1091.37Z" fill="url(#paint40_linear_2_30)"/>
<path d="M-106.22 1339.05C-205.91 1337.24 -304.667 1327.3 -400.582 1309.34C-496.494 1291.3 -589.463 1265.23 -677.898 1231.63C-766.334 1198.02 -850.134 1156.86 -927.931 1109.15C-1005.72 1061.35 -1077.41 1007 -1141.83 947.003C-1206.24 887.009 -1263.38 821.46 -1312.29 751.623C-1361.2 681.7 -1401.79 607.485 -1433.29 530.252C-1464.79 453.019 -1487.3 372.769 -1500.4 291.13C-1513.5 209.317 -1517.18 126.201 -1511.8 43.1716C-1513.04 126.083 -1505.1 208.388 -1487.92 288.617C-1470.84 368.849 -1444.51 446.92 -1409.57 521.382C-1374.64 595.93 -1331.11 666.869 -1279.93 732.933C-1228.75 799.084 -1169.83 860.442 -1104.42 915.837C-1039.02 971.319 -967.039 1020.92 -890.051 1063.74C-812.965 1106.64 -730.772 1142.76 -644.855 1171.44C-558.938 1200.11 -469.502 1221.45 -378.041 1235.05C-286.58 1248.65 -193.192 1254.44 -99.4952 1252.62C-71.6886 1252.09 -51.224 1271.25 -52.4922 1295.09C-53.7605 1318.93 -76.196 1338.46 -104.103 1338.99C-104.809 1339.01 -105.414 1339.03 -106.116 1338.96L-106.22 1339.05Z" fill="url(#paint41_linear_2_30)"/>
<path d="M-1234.4 1135.74C-1314.86 1071.24 -1387.57 999.817 -1451.09 922.771C-1514.53 845.647 -1568.67 762.963 -1612.63 676.158C-1656.59 589.354 -1690.26 498.49 -1713.39 405.349C-1736.44 312.131 -1748.85 216.698 -1750.44 120.633C-1752.03 24.5685 -1742.89 -72.0499 -1723.3 -167.449C-1703.64 -262.925 -1673.45 -357.122 -1633.2 -448.387C-1592.95 -539.652 -1542.74 -628.046 -1483.58 -711.79C-1424.27 -795.69 -1356.1 -874.863 -1280.55 -948.248C-1352.6 -872.368 -1416.57 -791.261 -1471.16 -706.247C-1525.83 -621.294 -1571.05 -532.511 -1606.1 -441.644C-1641.22 -350.7 -1666.18 -257.672 -1680.67 -164.334C-1695.23 -70.9176 -1699.32 22.9481 -1692.98 115.385C-1686.7 207.9 -1669.98 299.124 -1643.33 387.231C-1616.67 475.477 -1580 560.665 -1533.89 641.325C-1487.78 721.984 -1432.49 798.069 -1368.91 868.28C-1305.32 938.49 -1233.46 1002.69 -1154.83 1060.05C-1131.5 1077.08 -1131.09 1107.7 -1152.55 1128.94C-1174.01 1150.18 -1209.19 1154.1 -1232.61 1137.01C-1233.21 1136.59 -1233.72 1136.22 -1234.24 1135.72L-1234.4 1135.74Z" fill="url(#paint42_linear_2_30)"/>
<path d="M67.506 -96.9638C74.9241 -92.7946 81.9105 -88.0647 88.3269 -82.8598C94.7391 -77.6487 100.574 -71.9666 105.732 -65.9126C110.89 -59.8587 115.364 -53.4367 119.095 -46.7756C122.822 -40.1082 125.799 -33.2054 127.977 -26.182C130.156 -19.1586 131.54 -12.0208 132.115 -4.90044C132.687 2.22612 132.44 9.33133 131.377 16.2911C130.314 23.2508 128.441 30.0689 125.797 36.608C123.146 43.1596 119.729 49.4259 115.634 55.3192C119.412 49.2673 122.473 42.8882 124.747 36.2875C127.028 29.6908 128.517 22.8786 129.199 15.9838C129.885 9.0828 129.764 2.09915 128.85 -4.83527C127.941 -11.7759 126.236 -18.6774 123.778 -25.4025C121.325 -32.1337 118.115 -38.6987 114.228 -44.967C110.336 -51.2454 105.759 -57.2312 100.571 -62.8203C95.3833 -68.4095 89.6043 -73.6005 83.3293 -78.3044C77.0543 -83.0082 70.2869 -87.2148 63.1587 -90.8746C61.0433 -91.961 60.3558 -94.2 61.5107 -95.9032C62.6656 -97.6064 65.2211 -98.1353 67.3442 -97.0451C67.3981 -97.018 67.4444 -96.9948 67.4942 -96.9615L67.506 -96.9638Z" fill="url(#paint43_linear_2_30)"/>
<path d="M-69.5197 -185.877C-56.2123 -189.079 -42.4852 -191.141 -28.5984 -192.014C-14.7063 -192.876 -0.66777 -192.544 13.2752 -191.03C27.2181 -189.515 41.0523 -186.812 54.5302 -183.011C68.0134 -179.197 81.1271 -174.281 93.6552 -168.345C106.183 -162.409 118.121 -155.466 129.256 -147.655C140.397 -139.832 150.723 -131.137 160.05 -121.717C169.376 -112.298 177.716 -102.157 184.903 -91.5014C192.1 -80.822 198.139 -69.6397 202.975 -58.1559C197.601 -69.4808 191.052 -80.4053 183.419 -90.7278C175.799 -101.054 167.101 -110.767 157.505 -119.69C147.904 -128.626 137.407 -136.773 126.224 -143.993C115.035 -151.224 103.142 -157.535 90.7898 -162.811C78.4324 -168.098 65.5973 -172.358 52.5533 -175.522C39.4907 -178.694 26.2061 -180.766 12.9256 -181.697C-0.354924 -182.628 -13.6102 -182.438 -26.6167 -181.126C-39.6232 -179.814 -52.3625 -177.371 -64.6349 -173.884C-68.2772 -172.85 -72.2645 -174.75 -73.6893 -178.037C-75.1141 -181.325 -73.451 -184.758 -69.7956 -185.796C-69.7036 -185.823 -69.6248 -185.846 -69.5275 -185.862L-69.5197 -185.877Z" fill="url(#paint44_linear_2_30)"/>
<path d="M49.3227 -232.843C67.3148 -228.974 84.9552 -223.741 101.901 -217.231C118.845 -210.707 135.076 -202.91 150.317 -193.978C165.558 -185.046 179.791 -174.982 192.791 -164.006C205.788 -153.016 217.534 -141.116 227.836 -128.507C238.139 -115.898 247.001 -102.594 254.279 -88.8462C261.554 -75.084 267.226 -60.8816 271.187 -46.4845C275.149 -32.0874 277.418 -17.4925 277.952 -2.99483C278.481 11.5322 277.277 25.9474 274.437 40.0244C276.527 25.8202 276.941 11.3925 275.637 -3.0086C274.351 -17.4066 271.343 -31.7632 266.698 -45.8065C262.056 -59.8646 255.776 -73.6095 248.004 -86.7895C240.234 -99.9842 230.955 -112.632 220.37 -124.486C209.787 -136.355 197.881 -147.448 184.918 -157.554C171.939 -167.678 157.883 -176.818 142.987 -184.813C128.09 -192.808 112.392 -199.667 96.1534 -205.268C79.915 -210.87 63.1522 -215.197 46.1628 -218.229C41.1209 -219.13 37.85 -223.154 38.6154 -227.205C39.3808 -231.256 43.8782 -233.812 48.9384 -232.908C49.0665 -232.886 49.1763 -232.868 49.3018 -232.831L49.3227 -232.843Z" fill="url(#paint45_linear_2_30)"/>
<path d="M-249.454 -197.324C-235.31 -210.221 -219.641 -221.881 -202.735 -232.07C-185.812 -242.247 -167.665 -250.937 -148.611 -257.997C-129.556 -265.057 -109.608 -270.472 -89.1561 -274.199C-68.6876 -277.913 -47.7296 -279.925 -26.6302 -280.205C-5.5307 -280.485 15.6932 -279.046 36.652 -275.935C57.6279 -272.811 78.3253 -268.002 98.3815 -261.583C118.438 -255.163 137.866 -247.146 156.276 -237.697C174.719 -228.223 192.127 -217.329 208.265 -205.253C191.58 -216.768 173.748 -226.989 155.061 -235.707C136.387 -244.438 116.875 -251.654 96.9078 -257.241C76.9234 -262.841 56.484 -266.812 35.979 -269.108C15.457 -271.416 -5.16094 -272.047 -25.4624 -271.006C-45.7809 -269.978 -65.8133 -267.277 -85.1583 -262.987C-104.534 -258.696 -123.235 -252.803 -140.939 -245.4C-158.643 -237.997 -175.34 -229.125 -190.745 -218.927C-206.149 -208.729 -220.231 -197.207 -232.81 -184.604C-236.544 -180.865 -243.269 -180.79 -247.94 -184.22C-252.612 -187.651 -253.482 -193.283 -249.735 -197.036C-249.641 -197.132 -249.561 -197.214 -249.451 -197.298L-249.454 -197.324Z" fill="url(#paint46_linear_2_30)"/>
<path d="M-379.349 -210.217C-364.434 -230.022 -347.188 -248.492 -327.921 -265.26C-308.63 -282.015 -287.331 -297.047 -264.4 -310.102C-241.468 -323.158 -216.916 -334.216 -191.243 -343.142C-165.544 -352.055 -138.738 -358.815 -111.27 -363.316C-83.8029 -367.816 -55.6999 -370.07 -27.4829 -370.064C0.75983 -370.045 29.1029 -367.744 57.0522 -363.191C85.0016 -358.637 112.571 -351.851 139.204 -342.974C165.888 -334.071 191.611 -323.089 216.003 -310.297C191.051 -322.241 164.961 -332.251 138.166 -340.107C111.386 -347.985 83.9273 -353.696 56.3231 -357.168C28.6932 -360.652 0.917399 -361.897 -26.4827 -360.915C-53.9085 -359.946 -80.998 -356.743 -107.214 -351.394C-133.456 -346.058 -158.865 -338.569 -182.938 -329.115C-207.051 -319.654 -229.843 -308.209 -250.918 -294.965C-271.993 -281.721 -291.348 -266.733 -308.652 -250.247C-325.955 -233.761 -341.167 -215.785 -354.121 -196.675C-357.966 -191.004 -366.724 -189.589 -373.767 -193.206C-380.809 -196.823 -383.495 -204.091 -379.636 -209.783C-379.541 -209.928 -379.459 -210.052 -379.337 -210.184L-379.349 -210.217Z" fill="url(#paint47_linear_2_30)"/>
<path d="M-79.1093 -484.823C-44.6521 -487.529 -9.71507 -487.279 25.034 -484.054C59.7904 -480.797 94.3245 -474.559 128.043 -465.457C161.761 -456.355 194.628 -444.384 226.077 -429.856C257.532 -415.296 287.535 -398.175 315.591 -378.781C343.646 -359.388 369.749 -337.754 393.444 -314.301C417.147 -290.817 438.409 -265.511 456.845 -238.814C475.28 -212.117 490.925 -184.034 503.468 -155.134C516.026 -126.172 525.474 -96.4246 531.8 -66.4032C524.065 -96.2431 513.231 -125.556 499.423 -153.811C485.649 -182.071 468.907 -209.243 449.563 -234.828C430.212 -260.445 408.258 -284.474 384.155 -306.495C360.044 -328.546 333.742 -348.614 305.798 -366.322C277.846 -384.06 248.211 -399.464 217.522 -412.261C186.792 -425.085 154.974 -435.298 122.607 -442.713C90.2402 -450.128 57.3865 -454.785 24.5981 -456.595C-8.19039 -458.404 -40.872 -457.34 -72.9114 -453.534C-82.4201 -452.406 -91.3439 -458.605 -93.255 -467.215C-95.1661 -475.825 -89.3742 -483.598 -79.8311 -484.731C-79.5905 -484.762 -79.3843 -484.788 -79.1364 -484.788L-79.1093 -484.823Z" fill="url(#paint48_linear_2_30)"/>
<path d="M337.53 -484.819C374.62 -463.973 409.552 -440.323 441.634 -414.298C473.695 -388.243 502.868 -359.832 528.659 -329.562C554.449 -299.293 576.819 -267.183 595.475 -233.877C614.11 -200.54 628.993 -166.026 639.885 -130.909C650.778 -95.7924 657.701 -60.1032 660.577 -24.5015C663.432 11.1313 662.202 46.6573 656.885 81.456C651.568 116.255 642.203 150.345 628.987 183.041C615.73 215.799 598.642 247.13 578.167 276.597C597.062 246.337 612.367 214.442 623.733 181.438C635.139 148.454 642.586 114.394 645.995 79.9197C649.425 45.4147 648.817 10.4964 644.25 -24.1757C639.704 -58.8789 631.179 -93.3863 618.892 -127.012C606.625 -160.668 590.576 -193.493 571.137 -224.834C551.68 -256.227 528.795 -286.155 502.855 -314.101C476.916 -342.047 448.021 -368.002 416.646 -391.521C385.271 -415.04 351.434 -436.073 315.793 -454.373C305.216 -459.804 301.779 -470.999 307.553 -479.515C313.328 -488.031 326.105 -490.676 336.72 -485.225C336.99 -485.089 337.221 -484.973 337.471 -484.807L337.53 -484.819Z" fill="url(#paint49_linear_2_30)"/>
<path d="M-243.319 -650.57C-196.743 -661.775 -148.698 -668.993 -100.095 -672.049C-51.4722 -675.065 -2.33735 -673.905 46.463 -668.603C95.2632 -663.301 143.683 -653.843 190.855 -640.538C238.047 -627.191 283.945 -609.982 327.793 -589.207C371.642 -568.432 413.423 -544.131 452.397 -516.792C491.39 -489.412 527.531 -458.98 560.173 -426.011C592.816 -393.042 622.005 -357.549 647.159 -320.254C672.351 -282.877 693.488 -243.739 710.412 -203.545C691.602 -243.182 668.682 -281.418 641.967 -317.547C615.298 -353.689 584.852 -387.683 551.268 -418.916C517.666 -450.191 480.924 -478.706 441.782 -503.974C402.622 -529.283 360.997 -551.372 317.764 -569.837C274.513 -588.344 229.591 -603.254 183.936 -614.327C138.217 -625.429 91.721 -632.68 45.2393 -635.939C-1.2424 -639.198 -47.636 -638.533 -93.1587 -633.94C-138.682 -629.347 -183.269 -620.798 -226.222 -608.594C-238.97 -604.973 -252.926 -611.623 -257.913 -623.13C-262.899 -634.636 -257.079 -646.651 -244.285 -650.285C-243.963 -650.38 -243.687 -650.462 -243.346 -650.515L-243.319 -650.57Z" fill="url(#paint50_linear_2_30)"/>
<path d="M-865.461 -316.3C-843.601 -361.746 -816.391 -405.138 -784.307 -445.623C-752.165 -486.089 -715.169 -523.601 -673.968 -557.523C-632.767 -591.445 -587.381 -621.729 -538.771 -647.945C-490.104 -674.142 -438.232 -696.225 -384.021 -713.838C-329.811 -731.451 -273.32 -744.613 -215.609 -753.138C-157.84 -761.643 -98.8708 -765.465 -39.7229 -764.511C19.4249 -763.557 78.7698 -757.873 137.113 -747.584C195.573 -737.257 252.972 -722.344 308.439 -703.286C252.198 -720.422 194.469 -733.215 136.242 -741.346C78.0337 -749.524 19.3844 -753.02 -38.5855 -751.842C-96.6135 -750.684 -153.962 -744.851 -209.571 -734.531C-265.238 -724.23 -319.241 -709.413 -370.523 -690.426C-421.863 -671.457 -470.558 -648.291 -515.666 -621.468C-560.851 -594.618 -602.468 -564.066 -639.789 -530.316C-677.109 -496.567 -710.153 -459.733 -738.345 -420.424C-766.538 -381.116 -789.803 -339.36 -807.955 -295.945C-813.343 -283.061 -830.637 -277.486 -846.619 -282.83C-862.601 -288.175 -871.266 -302.385 -865.858 -315.316C-865.726 -315.644 -865.612 -315.925 -865.422 -316.235L-865.461 -316.3Z" fill="url(#paint51_linear_2_30)"/>
<path d="M177.561 -838.234C242.333 -824.306 305.838 -805.466 366.844 -782.032C427.841 -758.545 486.273 -730.476 541.141 -698.321C596.01 -666.165 647.249 -629.935 694.048 -590.422C740.838 -550.856 783.121 -508.018 820.211 -462.625C857.3 -417.232 889.204 -369.337 915.404 -319.846C941.594 -270.302 962.013 -219.174 976.274 -167.344C990.535 -115.514 998.704 -62.9728 1000.63 -10.7812C1002.53 41.5162 998.197 93.4106 987.974 144.088C995.497 92.9527 996.989 41.013 992.293 -10.8308C987.663 -62.6634 976.835 -114.347 960.113 -164.903C943.401 -215.513 920.794 -264.994 892.813 -312.442C864.841 -359.943 831.438 -405.474 793.331 -448.149C755.233 -490.877 712.373 -530.813 665.705 -567.196C618.979 -603.642 568.379 -636.546 514.751 -665.328C461.124 -694.11 404.61 -718.8 346.152 -738.966C287.694 -759.131 227.348 -774.709 166.186 -785.625C148.035 -788.867 136.26 -803.353 139.015 -817.938C141.771 -832.523 157.961 -841.722 176.178 -838.469C176.639 -838.391 177.034 -838.324 177.486 -838.193L177.561 -838.234Z" fill="url(#paint52_linear_2_30)"/>
<path d="M-64.4636 -1028.63C8.2552 -1028.6 81.3763 -1022.31 153.497 -1009.84C225.626 -997.297 296.682 -978.566 365.445 -953.986C434.208 -929.405 500.605 -898.971 563.507 -863.428C626.419 -827.819 685.764 -787.098 740.569 -741.951C795.374 -696.804 845.631 -647.298 890.476 -594.39C935.33 -541.416 974.699 -485.037 1007.87 -426.219C1041.04 -367.401 1068.07 -306.147 1088.45 -243.699C1108.84 -181.119 1122.57 -117.411 1129.69 -53.6455C1119.58 -117.264 1102.87 -180.292 1079.71 -241.603C1056.62 -302.917 1027.1 -362.447 991.805 -419.093C956.499 -475.804 915.419 -529.631 869.428 -579.613C823.427 -629.662 772.433 -675.93 717.518 -717.536C662.594 -759.208 603.668 -796.28 542.003 -828.081C480.257 -859.944 415.699 -886.532 349.423 -907.365C283.146 -928.198 215.287 -943.349 146.984 -952.541C78.681 -961.732 10.0157 -964.902 -57.8637 -962.238C-78.0088 -961.45 -95.4347 -975.873 -97.6813 -994.177C-99.928 -1012.48 -86.2124 -1027.76 -65.9943 -1028.56C-65.4841 -1028.58 -65.0467 -1028.6 -64.5276 -1028.56L-64.4636 -1028.63Z" fill="url(#paint53_linear_2_30)"/>
<path d="M-461.275 -1101.75C-382.318 -1123.42 -300.574 -1138.33 -217.59 -1146.14C-134.572 -1153.88 -50.3913 -1154.48 33.4987 -1147.97C117.389 -1141.45 200.911 -1127.78 282.56 -1107.46C364.244 -1087.06 443.978 -1059.97 520.447 -1026.65C596.916 -993.34 670.086 -953.871 738.659 -909.044C807.268 -864.146 871.202 -813.865 929.321 -759.048C987.44 -704.231 1039.82 -644.905 1085.42 -582.275C1131.08 -519.505 1169.93 -453.501 1201.64 -385.466C1166.74 -452.448 1124.9 -516.81 1076.71 -577.358C1028.6 -637.931 974.175 -694.621 914.562 -746.411C854.915 -798.272 790.083 -845.234 721.364 -886.501C652.611 -927.837 579.858 -963.523 504.601 -992.907C429.309 -1022.36 351.402 -1045.56 272.503 -1062.14C193.492 -1078.77 113.413 -1088.75 33.6305 -1091.88C-46.1517 -1095.02 -125.516 -1091.43 -203.121 -1081.15C-280.727 -1070.87 -356.462 -1053.86 -429.151 -1030.67C-450.725 -1023.78 -475.064 -1034.45 -484.384 -1053.92C-493.704 -1073.39 -484.56 -1094.3 -462.909 -1101.21C-462.364 -1101.39 -461.898 -1101.54 -461.319 -1101.65L-461.275 -1101.75Z" fill="url(#paint54_linear_2_30)"/>
<path d="M-1440.15 -81.7734C-1438.33 -160.127 -1427.76 -237.757 -1408.57 -313.164C-1389.29 -388.568 -1361.38 -461.67 -1325.35 -531.218C-1289.32 -600.766 -1245.17 -666.681 -1193.96 -727.886C-1142.66 -789.088 -1084.3 -845.501 -1019.87 -896.202C-955.431 -946.904 -885.014 -991.898 -809.974 -1030.43C-734.842 -1068.96 -655.084 -1100.95 -572.068 -1125.81C-489.052 -1150.66 -402.781 -1168.46 -315.003 -1178.86C-227.039 -1189.26 -137.661 -1192.25 -48.3647 -1188.13C-137.529 -1189.01 -226.029 -1182.66 -312.285 -1169.05C-398.544 -1155.53 -482.468 -1134.73 -562.499 -1107.18C-642.623 -1079.63 -718.855 -1045.32 -789.834 -1005.01C-860.906 -964.708 -926.815 -918.32 -986.303 -866.845C-1045.88 -815.372 -1099.13 -758.735 -1145.08 -698.172C-1191.12 -637.532 -1229.85 -572.887 -1260.58 -505.325C-1291.31 -437.762 -1314.14 -367.443 -1328.65 -295.543C-1343.16 -223.642 -1349.26 -150.236 -1347.19 -76.5985C-1346.58 -54.7448 -1367.16 -38.6363 -1392.8 -39.6027C-1418.44 -40.569 -1439.47 -58.1771 -1440.08 -80.11C-1440.1 -80.6645 -1440.12 -81.1397 -1440.05 -81.6916L-1440.15 -81.7734Z" fill="url(#paint55_linear_2_30)"/>
<path d="M-1375.14 -762.038C-1321.07 -833.83 -1258.55 -900.783 -1188.72 -961.567C-1118.78 -1022.3 -1041.58 -1076.79 -958.449 -1124.12C-875.321 -1171.45 -786.319 -1211.53 -693.254 -1243.89C-600.096 -1276.2 -502.924 -1300.7 -403.355 -1317.02C-303.786 -1333.33 -201.912 -1341.5 -99.6255 -1341.48C2.75423 -1341.41 105.498 -1333.07 206.814 -1316.57C308.131 -1300.06 408.069 -1275.46 504.614 -1243.28C601.345 -1211.01 694.59 -1171.2 783.009 -1124.83C692.561 -1168.12 597.982 -1204.41 500.853 -1232.89C403.773 -1261.44 304.236 -1282.15 204.171 -1294.73C104.013 -1307.36 3.32541 -1311.88 -96 -1308.32C-195.418 -1304.8 -293.618 -1293.19 -388.652 -1273.8C-483.779 -1254.46 -575.884 -1227.31 -663.151 -1193.04C-750.561 -1158.75 -833.182 -1117.26 -909.577 -1069.25C-985.973 -1021.24 -1056.14 -966.906 -1118.86 -907.144C-1181.59 -847.383 -1236.73 -782.219 -1283.69 -712.947C-1297.63 -692.39 -1329.37 -687.26 -1354.9 -700.371C-1380.43 -713.483 -1390.17 -739.831 -1376.18 -760.463C-1375.83 -760.988 -1375.54 -761.438 -1375.1 -761.916L-1375.14 -762.038Z" fill="url(#paint56_linear_2_30)"/>
<path d="M-556.158 -1487.02C-449.699 -1512.63 -339.882 -1529.13 -228.787 -1536.11C-117.651 -1543 -5.34246 -1540.35 106.201 -1528.24C217.745 -1516.12 328.418 -1494.5 436.241 -1464.09C544.107 -1433.58 649.016 -1394.25 749.241 -1346.76C849.467 -1299.27 944.966 -1243.73 1034.05 -1181.24C1123.18 -1118.66 1205.79 -1049.1 1280.4 -973.738C1355.01 -898.381 1421.73 -817.255 1479.22 -732.01C1536.8 -646.575 1585.12 -557.117 1623.8 -465.247C1580.81 -555.845 1528.42 -643.242 1467.35 -725.821C1406.4 -808.432 1336.81 -886.131 1260.04 -957.522C1183.24 -1029.01 1099.26 -1094.18 1009.79 -1151.94C920.279 -1209.79 825.135 -1260.28 726.318 -1302.49C627.459 -1344.79 524.778 -1378.87 420.426 -1404.18C315.926 -1429.55 209.648 -1446.13 103.404 -1453.57C-2.8397 -1461.02 -108.882 -1459.5 -212.934 -1449.01C-316.986 -1438.51 -418.9 -1418.97 -517.08 -1391.07C-546.218 -1382.8 -578.116 -1398 -589.515 -1424.3C-600.913 -1450.6 -587.609 -1478.06 -558.365 -1486.37C-557.629 -1486.58 -556.998 -1486.77 -556.22 -1486.89L-556.158 -1487.02Z" fill="url(#paint57_linear_2_30)"/>
<path d="M0 1844C1192.94 1844 2160 1018.41 2160 0.00012207C2160 -1018.41 1192.94 -1844 0 -1844C-1192.93 -1844 -2160 -1018.41 -2160 0.00012207C-2160 1018.41 -1192.93 1844 0 1844Z" fill="url(#paint58_radial_2_30)" fill-opacity="0.1"/>
</g>
<defs>
<radialGradient id="paint0_radial_2_30" cx="0" cy="0" r="1" gradientUnits="userSpaceOnUse" gradientTransform="translate(0 0.000244141) scale(2160 1844)">
<stop stop-color="#FFBB33"/>
<stop offset="1" stop-color="#EE5522"/>
</radialGradient>
<radialGradient id="paint1_radial_2_30" cx="0" cy="0" r="1" gradientUnits="userSpaceOnUse" gradientTransform="scale(1440 1229.33)">
<stop stop-color="#FFBB33"/>
<stop offset="1" stop-color="#EE5522"/>
</radialGradient>
<radialGradient id="paint2_radial_2_30" cx="0" cy="0" r="1" gradientUnits="userSpaceOnUse" gradientTransform="scale(1296 1106.4)">
<stop stop-color="#FFBB33"/>
<stop offset="1" stop-color="#EE5522"/>
</radialGradient>
<radialGradient id="paint3_radial_2_30" cx="0" cy="0" r="1" gradientUnits="userSpaceOnUse" gradientTransform="scale(1224 1044.93)">
<stop stop-color="#FFBB33"/>
<stop offset="1" stop-color="#EE5522"/>
</radialGradient>
<radialGradient id="paint4_radial_2_30" cx="0" cy="0" r="1" gradientUnits="userSpaceOnUse" gradientTransform="scale(1188.72 1014.81)">
<stop stop-color="#FFBB33"/>
<stop offset="1" stop-color="#EE5522"/>
</radialGradient>
<radialGradient id="paint5_radial_2_30" cx="0" cy="0" r="1" gradientUnits="userSpaceOnUse" gradientTransform="scale(1044 891.267)">
<stop stop-color="#FFBB33"/>
<stop offset="1" stop-color="#EE5522"/>
</radialGradient>
<radialGradient id="paint6_radial_2_30" cx="0" cy="0" r="1" gradientUnits="userSpaceOnUse" gradientTransform="scale(900 768.333)">
<stop stop-color="#FFBB33"/>
<stop offset="1" stop-color="#EE5522"/>
</radialGradient>
<radialGradient id="paint7_radial_2_30" cx="0" cy="0" r="1" gradientUnits="userSpaceOnUse" gradientTransform="scale(846 722.233)">
<stop stop-color="#FFBB33"/>
<stop offset="1" stop-color="#EE5522"/>
</radialGradient>
<radialGradient id="paint8_radial_2_30" cx="0" cy="0" r="1" gradientUnits="userSpaceOnUse" gradientTransform="scale(648 553.2)">
<stop stop-color="#FFBB33"/>
<stop offset="1" stop-color="#EE5522"/>
</radialGradient>
<radialGradient id="paint9_radial_2_30" cx="0" cy="0" r="1" gradientUnits="userSpaceOnUse" gradientTransform="scale(540 461)">
<stop stop-color="#FFBB33"/>
<stop offset="1" stop-color="#EE5522"/>
</radialGradient>
<radialGradient id="paint10_radial_2_30" cx="0" cy="0" r="1" gradientUnits="userSpaceOnUse" gradientTransform="scale(360 307.333)">
<stop stop-color="#FFBB33"/>
<stop offset="1" stop-color="#EE5522"/>
</radialGradient>
<radialGradient id="paint11_radial_2_30" cx="0" cy="0" r="1" gradientUnits="userSpaceOnUse" gradientTransform="scale(273.6 233.573)">
<stop stop-color="#FFBB33"/>
<stop offset="1" stop-color="#EE5522"/>
</radialGradient>
<radialGradient id="paint12_radial_2_30" cx="0" cy="0" r="1" gradientUnits="userSpaceOnUse" gradientTransform="scale(180 153.667)">
<stop stop-color="#FFBB33"/>
<stop offset="1" stop-color="#EE5522"/>
</radialGradient>
<linearGradient id="paint13_linear_2_30" x1="-59.4578" y1="19.9377" x2="-24.8861" y2="128.01" gradientUnits="userSpaceOnUse">
<stop stop-color="#F7882B"/>
<stop offset="1" stop-color="#EE5522"/>
</linearGradient>
<linearGradient id="paint14_linear_2_30" x1="-34.6444" y1="88.4008" x2="159.607" y2="174.607" gradientUnits="userSpaceOnUse">
<stop stop-color="#F7882B"/>
<stop offset="1" stop-color="#EE5522"/>
</linearGradient>
<linearGradient id="paint15_linear_2_30" x1="-100.743" y1="76.0389" x2="42.8454" y2="276.371" gradientUnits="userSpaceOnUse">
<stop stop-color="#F7882B"/>
<stop offset="1" stop-color="#EE5522"/>
</linearGradient>
<linearGradient id="paint16_linear_2_30" x1="24.2169" y1="139.048" x2="360.715" y2="77.9388" gradientUnits="userSpaceOnUse">
<stop stop-color="#F7882B"/>
<stop offset="1" stop-color="#EE5522"/>
</linearGradient>
<linearGradient id="paint17_linear_2_30" x1="69.173" y1="176.719" x2="484.98" y2="7.36859" gradientUnits="userSpaceOnUse">
<stop stop-color="#F7882B"/>
<stop offset="1" stop-color="#EE5522"/>
</linearGradient>
<linearGradient id="paint18_linear_2_30" x1="-129.573" y1="203.716" x2="298.121" y2="498.533" gradientUnits="userSpaceOnUse">
<stop stop-color="#F7882B"/>
<stop offset="1" stop-color="#EE5522"/>
</linearGradient>
<linearGradient id="paint19_linear_2_30" x1="-297.288" y1="99.6884" x2="-124.43" y2="640.05" gradientUnits="userSpaceOnUse">
<stop stop-color="#F7882B"/>
<stop offset="1" stop-color="#EE5522"/>
</linearGradient>
<linearGradient id="paint20_linear_2_30" x1="-121.255" y1="309.402" x2="558.624" y2="611.123" gradientUnits="userSpaceOnUse">
<stop stop-color="#F7882B"/>
<stop offset="1" stop-color="#EE5522"/>
</linearGradient>
<linearGradient id="paint21_linear_2_30" x1="216.26" y1="340.113" x2="979.409" y2="-165.185" gradientUnits="userSpaceOnUse">
<stop stop-color="#F7882B"/>
<stop offset="1" stop-color="#EE5522"/>
</linearGradient>
<linearGradient id="paint22_linear_2_30" x1="-362.675" y1="273.74" x2="154.244" y2="994.934" gradientUnits="userSpaceOnUse">
<stop stop-color="#F7882B"/>
<stop offset="1" stop-color="#EE5522"/>
</linearGradient>
<linearGradient id="paint23_linear_2_30" x1="-313.994" y1="404.918" x2="514.349" y2="1093.17" gradientUnits="userSpaceOnUse">
<stop stop-color="#F7882B"/>
<stop offset="1" stop-color="#EE5522"/>
</linearGradient>
<linearGradient id="paint24_linear_2_30" x1="-186.27" y1="536.891" x2="1002.55" y2="1011.21" gradientUnits="userSpaceOnUse">
<stop stop-color="#F7882B"/>
<stop offset="1" stop-color="#EE5522"/>
</linearGradient>
<linearGradient id="paint25_linear_2_30" x1="537.251" y1="405.481" x2="1341.13" y2="-717.683" gradientUnits="userSpaceOnUse">
<stop stop-color="#F7882B"/>
<stop offset="1" stop-color="#EE5522"/>
</linearGradient>
<linearGradient id="paint26_linear_2_30" x1="250.752" y1="640.607" x2="1758.05" y2="26.7111" gradientUnits="userSpaceOnUse">
<stop stop-color="#F7882B"/>
<stop offset="1" stop-color="#EE5522"/>
</linearGradient>
<linearGradient id="paint27_linear_2_30" x1="-277.155" y1="707.205" x2="1276.85" y2="1396.85" gradientUnits="userSpaceOnUse">
<stop stop-color="#F7882B"/>
<stop offset="1" stop-color="#EE5522"/>
</linearGradient>
<linearGradient id="paint28_linear_2_30" x1="-2.17777" y1="-57.1615" x2="-131.377" y2="-62.4207" gradientUnits="userSpaceOnUse">
<stop stop-color="#F7882B"/>
<stop offset="1" stop-color="#EE5522"/>
</linearGradient>
<linearGradient id="paint29_linear_2_30" x1="-80.0344" y1="-61.4848" x2="-201.277" y2="108.616" gradientUnits="userSpaceOnUse">
<stop stop-color="#F7882B"/>
<stop offset="1" stop-color="#EE5522"/>
</linearGradient>
<linearGradient id="paint30_linear_2_30" x1="-42.4235" y1="-111.318" x2="-304.764" y2="-5.60747" gradientUnits="userSpaceOnUse">
<stop stop-color="#F7882B"/>
<stop offset="1" stop-color="#EE5522"/>
</linearGradient>
<linearGradient id="paint31_linear_2_30" x1="-154.676" y1="-28.112" x2="-192.482" y2="265.433" gradientUnits="userSpaceOnUse">
<stop stop-color="#F7882B"/>
<stop offset="1" stop-color="#EE5522"/>
</linearGradient>
<linearGradient id="paint32_linear_2_30" x1="-208.524" y1="5.95473" x2="-198.002" y2="374.402" gradientUnits="userSpaceOnUse">
<stop stop-color="#F7882B"/>
<stop offset="1" stop-color="#EE5522"/>
</linearGradient>
<linearGradient id="paint33_linear_2_30" x1="-166.783" y1="-182.105" x2="-551.43" y2="192.959" gradientUnits="userSpaceOnUse">
<stop stop-color="#F7882B"/>
<stop offset="1" stop-color="#EE5522"/>
</linearGradient>
<linearGradient id="paint34_linear_2_30" x1="-10.8894" y1="-285.807" x2="-656.883" y2="-312.103" gradientUnits="userSpaceOnUse">
<stop stop-color="#F7882B"/>
<stop offset="1" stop-color="#EE5522"/>
</linearGradient>
<linearGradient id="paint35_linear_2_30" x1="-280.12" y1="-215.197" x2="-704.47" y2="380.155" gradientUnits="userSpaceOnUse">
<stop stop-color="#F7882B"/>
<stop offset="1" stop-color="#EE5522"/>
</linearGradient>
<linearGradient id="paint36_linear_2_30" x1="-429.783" y1="77.7152" x2="-300.51" y2="840.08" gradientUnits="userSpaceOnUse">
<stop stop-color="#F7882B"/>
<stop offset="1" stop-color="#EE5522"/>
</linearGradient>
<linearGradient id="paint37_linear_2_30" x1="-152.725" y1="-400.745" x2="-1097.15" y2="-20.1871" gradientUnits="userSpaceOnUse">
<stop stop-color="#F7882B"/>
<stop offset="1" stop-color="#EE5522"/>
</linearGradient>
<linearGradient id="paint38_linear_2_30" x1="-310.812" y1="-408.241" x2="-1201.09" y2="310.883" gradientUnits="userSpaceOnUse">
<stop stop-color="#F7882B"/>
<stop offset="1" stop-color="#EE5522"/>
</linearGradient>
<linearGradient id="paint39_linear_2_30" x1="-494.393" y1="-353.961" x2="-1182.4" y2="685.562" gradientUnits="userSpaceOnUse">
<stop stop-color="#F7882B"/>
<stop offset="1" stop-color="#EE5522"/>
</linearGradient>
<linearGradient id="paint40_linear_2_30" x1="-604.509" y1="322.295" x2="-33.6407" y2="1459.88" gradientUnits="userSpaceOnUse">
<stop stop-color="#F7882B"/>
<stop offset="1" stop-color="#EE5522"/>
</linearGradient>
<linearGradient id="paint41_linear_2_30" x1="-755.899" y1="21.5858" x2="-717.758" y2="1357.21" gradientUnits="userSpaceOnUse">
<stop stop-color="#F7882B"/>
<stop offset="1" stop-color="#EE5522"/>
</linearGradient>
<linearGradient id="paint42_linear_2_30" x1="-640.275" y1="-491.879" x2="-1610.22" y2="868.927" gradientUnits="userSpaceOnUse">
<stop stop-color="#F7882B"/>
<stop offset="1" stop-color="#EE5522"/>
</linearGradient>
<linearGradient id="paint43_linear_2_30" x1="57.8168" y1="26.3055" x2="109.208" y2="-76.1031" gradientUnits="userSpaceOnUse">
<stop stop-color="#F7882B"/>
<stop offset="1" stop-color="#EE5522"/>
</linearGradient>
<linearGradient id="paint44_linear_2_30" x1="104.432" y1="-29.078" x2="47.9076" y2="-220.635" gradientUnits="userSpaceOnUse">
<stop stop-color="#F7882B"/>
<stop offset="1" stop-color="#EE5522"/>
</linearGradient>
<linearGradient id="paint45_linear_2_30" x1="137.219" y1="16.7564" x2="175.923" y2="-211.497" gradientUnits="userSpaceOnUse">
<stop stop-color="#F7882B"/>
<stop offset="1" stop-color="#EE5522"/>
</linearGradient>
<linearGradient id="paint46_linear_2_30" x1="108.195" y1="-102.627" x2="-122.593" y2="-327.665" gradientUnits="userSpaceOnUse">
<stop stop-color="#F7882B"/>
<stop offset="1" stop-color="#EE5522"/>
</linearGradient>
<linearGradient id="paint47_linear_2_30" x1="113.608" y1="-155.149" x2="-255.288" y2="-398.611" gradientUnits="userSpaceOnUse">
<stop stop-color="#F7882B"/>
<stop offset="1" stop-color="#EE5522"/>
</linearGradient>
<linearGradient id="paint48_linear_2_30" x1="274.006" y1="-33.2016" x2="210.996" y2="-522.443" gradientUnits="userSpaceOnUse">
<stop stop-color="#F7882B"/>
<stop offset="1" stop-color="#EE5522"/>
</linearGradient>
<linearGradient id="paint49_linear_2_30" x1="289.084" y1="131.528" x2="546.039" y2="-380.515" gradientUnits="userSpaceOnUse">
<stop stop-color="#F7882B"/>
<stop offset="1" stop-color="#EE5522"/>
</linearGradient>
<linearGradient id="paint50_linear_2_30" x1="365.511" y1="-101.773" x2="167.676" y2="-772.222" gradientUnits="userSpaceOnUse">
<stop stop-color="#F7882B"/>
<stop offset="1" stop-color="#EE5522"/>
</linearGradient>
<linearGradient id="paint51_linear_2_30" x1="166.744" y1="-351.643" x2="-709.474" y2="-704.717" gradientUnits="userSpaceOnUse">
<stop stop-color="#F7882B"/>
<stop offset="1" stop-color="#EE5522"/>
</linearGradient>
<linearGradient id="paint52_linear_2_30" x1="493.987" y1="60.3231" x2="633.324" y2="-761.388" gradientUnits="userSpaceOnUse">
<stop stop-color="#F7882B"/>
<stop offset="1" stop-color="#EE5522"/>
</linearGradient>
<linearGradient id="paint53_linear_2_30" x1="583" y1="-26.8228" x2="532.384" y2="-1058.45" gradientUnits="userSpaceOnUse">
<stop stop-color="#F7882B"/>
<stop offset="1" stop-color="#EE5522"/>
</linearGradient>
<linearGradient id="paint54_linear_2_30" x1="618.227" y1="-192.733" x2="241.063" y2="-1334.42" gradientUnits="userSpaceOnUse">
<stop stop-color="#F7882B"/>
<stop offset="1" stop-color="#EE5522"/>
</linearGradient>
<linearGradient id="paint55_linear_2_30" x1="-24.1823" y1="-594.067" x2="-1459.37" y2="-535.645" gradientUnits="userSpaceOnUse">
<stop stop-color="#F7882B"/>
<stop offset="1" stop-color="#EE5522"/>
</linearGradient>
<linearGradient id="paint56_linear_2_30" x1="411.83" y1="-562.414" x2="-925.418" y2="-1444.96" gradientUnits="userSpaceOnUse">
<stop stop-color="#F7882B"/>
<stop offset="1" stop-color="#EE5522"/>
</linearGradient>
<linearGradient id="paint57_linear_2_30" x1="835.454" y1="-232.623" x2="383.26" y2="-1765.08" gradientUnits="userSpaceOnUse">
<stop stop-color="#F7882B"/>
<stop offset="1" stop-color="#EE5522"/>
</linearGradient>
<radialGradient id="paint58_radial_2_30" cx="0" cy="0" r="1" gradientUnits="userSpaceOnUse" gradientTransform="translate(0 0.000244141) scale(2160 1844)">
<stop stop-color="#FFBB33"/>
<stop offset="1" stop-color="#EE5522"/>
</radialGradient>
<clipPath id="clip0_2_30">
<rect width="1440" height="922" fill="white"/>
</clipPath>
</defs>
</svg>
