<svg width="58" height="58" viewBox="0 0 58 58" fill="none" xmlns="http://www.w3.org/2000/svg">
<g filter="url(#filter0_d_2_2379)">
<path d="M14 0C8.48615 0 4 4.48615 4 10V40C4 45.5138 8.48615 50 14 50H44C49.5138 50 54 45.5138 54 40V10C54 4.48538 49.5138 0 44 0H14ZM14 1.53846H44C48.6654 1.53846 52.4615 5.33462 52.4615 10V40C52.4615 44.6654 48.6654 48.4615 44 48.4615H14C9.33461 48.4615 5.53846 44.6654 5.53846 40V10C5.53846 5.33462 9.33461 1.53846 14 1.53846ZM16.183 3.84465C11.5861 3.84465 7.84615 7.58457 7.84615 12.1815V37.817C7.84615 42.4139 11.5861 46.1523 16.183 46.1523H41.817C46.4139 46.1523 50.1538 42.4139 50.1538 37.817V23.4615C50.1538 23.2485 49.9815 23.0769 49.7692 23.0769C49.5569 23.0769 49.3846 23.2492 49.3846 23.4615V37.817C49.3846 41.9893 45.9893 45.3846 41.817 45.3846H16.183C12.0107 45.3846 8.61538 41.9893 8.61538 37.817V12.1815C8.61538 8.00918 12.0107 4.61388 16.183 4.61388H42.0769C42.2892 4.61388 42.4615 4.44157 42.4615 4.22927C42.4615 4.01696 42.2892 3.84465 42.0769 3.84465H16.183ZM28.6454 13.1085C25.5847 13.1085 25.2113 13.1168 24.012 13.1776C22.8897 13.226 22.0132 13.3923 21.174 13.7184C20.3394 14.04 19.6893 14.4626 19.0631 15.0856C18.4362 15.7087 18.0107 16.356 17.6869 17.1845C17.3592 18.0183 17.1908 18.8878 17.1415 20.0255C17.09 21.1994 17.0724 21.5948 17.0724 24.6094C17.0724 27.6517 17.0823 28.0235 17.143 29.2142C17.1915 30.3304 17.3592 31.2011 17.6869 32.0358C18.0107 32.865 18.4362 33.5115 19.0631 34.1346C19.6893 34.7577 20.3394 35.1795 21.174 35.5018C22.0124 35.8272 22.8891 35.9942 24.0361 36.0442C25.2168 36.0949 25.6139 36.1118 28.6454 36.1118C31.7062 36.1118 32.0804 36.1034 33.2788 36.0427C34.4012 35.9942 35.2762 35.828 36.1154 35.5018C36.9492 35.1803 37.6008 34.7577 38.2278 34.1346C38.8547 33.5115 39.2786 32.8642 39.6025 32.0358C39.9302 31.2019 40.0986 30.3316 40.1478 29.1977C40.1994 28.0239 40.2185 27.6286 40.2185 24.6109C40.2185 21.5678 40.2094 21.196 40.1478 20.006C40.0994 18.8891 39.9302 18.0191 39.6025 17.1845C39.2786 16.3553 38.8547 15.7072 38.2278 15.0841C37.6008 14.4611 36.9507 14.0408 36.1169 13.7184C35.2784 13.3931 34.4017 13.2261 33.2548 13.1761C32.074 13.1253 31.677 13.1085 28.6454 13.1085ZM28.6469 13.8777C31.6616 13.8777 32.0558 13.8938 33.2473 13.9453C34.2835 13.9907 35.0828 14.1428 35.8404 14.4366C36.5704 14.7181 37.14 15.0857 37.6869 15.6295C38.2346 16.1741 38.6057 16.7393 38.8888 17.4639V17.4654C39.1842 18.2178 39.3355 19.0098 39.3801 20.0406C39.4409 21.2159 39.4507 21.5855 39.4507 24.6094C39.45 27.6117 39.4316 28.0027 39.3801 29.1812C39.3347 30.2097 39.1835 31.004 38.8873 31.7563C38.6042 32.4802 38.2339 33.0461 37.6854 33.5907C37.1385 34.1346 36.5682 34.5021 35.8374 34.7837C35.079 35.0775 34.2805 35.2303 33.2428 35.2749C32.0589 35.3349 31.6877 35.3425 28.6454 35.3425C25.63 35.3425 25.2358 35.3265 24.0451 35.2749C23.0089 35.2296 22.2096 35.0775 21.4519 34.7837C20.7212 34.5013 20.1524 34.1346 19.6055 33.5907C19.0578 33.0461 18.6874 32.4802 18.4035 31.7548C18.1082 31.0017 17.9569 30.209 17.9123 29.1782C17.8523 28.002 17.8431 27.6332 17.8431 24.6094C17.8431 21.6109 17.8607 21.2206 17.9123 20.0391C17.9576 19.0106 18.1089 18.2155 18.405 17.4639C18.6881 16.7393 19.0578 16.1734 19.6055 15.6295C20.1524 15.0857 20.7227 14.7181 21.4534 14.4366C22.2119 14.1428 23.0119 13.9899 24.0496 13.9453C25.2342 13.8853 25.6046 13.8777 28.6469 13.8777ZM49.7692 15.3846C49.5569 15.3846 49.3846 15.5562 49.3846 15.7692V17.3077C49.3846 17.52 49.5569 17.6923 49.7692 17.6923C49.9815 17.6923 50.1538 17.52 50.1538 17.3077V15.7692C50.1538 15.5569 49.9815 15.3846 49.7692 15.3846ZM34.8218 16.57C33.871 16.57 33.0971 17.3396 33.0971 18.2858C33.0971 19.2319 33.871 20.0015 34.8218 20.0015C35.7726 20.0015 36.5466 19.2319 36.5466 18.2858C36.5473 17.3396 35.7734 16.57 34.8218 16.57ZM34.8218 17.3392C35.3487 17.3392 35.7773 17.7634 35.7773 18.2858C35.7781 18.8081 35.3495 19.2323 34.8218 19.2323C34.2949 19.2323 33.8663 18.8081 33.8663 18.2858C33.8663 17.7634 34.2949 17.3392 34.8218 17.3392ZM49.7692 18.4615C49.5569 18.4615 49.3846 18.6338 49.3846 18.8462V21.9231C49.3846 22.1354 49.5569 22.3077 49.7692 22.3077C49.9815 22.3077 50.1538 22.1354 50.1538 21.9231V18.8462C50.1538 18.6331 49.9815 18.4615 49.7692 18.4615ZM28.6364 18.5126C25.2541 18.5126 22.5021 21.2471 22.5021 24.6094C22.5021 27.9717 25.2541 30.7076 28.6364 30.7076C32.0187 30.7076 34.7707 27.9717 34.7707 24.6094C34.7707 21.2478 32.0187 18.5126 28.6364 18.5126ZM28.6364 19.2819C31.5949 19.2819 34.0015 21.6709 34.0015 24.6094C34.0015 27.5478 31.5949 29.9384 28.6364 29.9384C25.678 29.9384 23.2713 27.5478 23.2713 24.6094C23.2713 21.6717 25.678 19.2819 28.6364 19.2819Z" fill="white"/>
</g>
<defs>
<filter id="filter0_d_2_2379" x="0" y="0" width="58" height="58" filterUnits="userSpaceOnUse" color-interpolation-filters="sRGB">
<feFlood flood-opacity="0" result="BackgroundImageFix"/>
<feColorMatrix in="SourceAlpha" type="matrix" values="0 0 0 0 0 0 0 0 0 0 0 0 0 0 0 0 0 0 127 0" result="hardAlpha"/>
<feOffset dy="4"/>
<feGaussianBlur stdDeviation="2"/>
<feComposite in2="hardAlpha" operator="out"/>
<feColorMatrix type="matrix" values="0 0 0 0 0 0 0 0 0 0 0 0 0 0 0 0 0 0 0.25 0"/>
<feBlend mode="normal" in2="BackgroundImageFix" result="effect1_dropShadow_2_2379"/>
<feBlend mode="normal" in="SourceGraphic" in2="effect1_dropShadow_2_2379" result="shape"/>
</filter>
</defs>
</svg>
