<svg width="58" height="58" viewBox="0 0 58 58" fill="none" xmlns="http://www.w3.org/2000/svg">
<g filter="url(#filter0_d_2_2381)">
<mask id="path-1-inside-1_2_2381" fill="white">
<path d="M14 0C8.48615 0 4 4.48615 4 10V40C4 45.5138 8.48615 50 14 50H44C49.5138 50 54 45.5138 54 40V10C54 4.48538 49.5146 0 44 0H14ZM14 1.53846H44C48.6654 1.53846 52.4615 5.33462 52.4615 10V40C52.4615 44.6654 48.6654 48.4615 44 48.4615H14C9.33462 48.4615 5.53846 44.6654 5.53846 40V10C5.53846 5.33462 9.33462 1.53846 14 1.53846ZM16.183 3.84465C11.5861 3.84465 7.84615 7.58457 7.84615 12.1815V37.817C7.84615 42.4139 11.5861 46.1523 16.183 46.1523H41.8185C46.4154 46.1523 50.1538 42.4139 50.1538 37.817V23.4615C50.1538 23.2485 49.9815 23.0769 49.7692 23.0769C49.5569 23.0769 49.3846 23.2492 49.3846 23.4615V37.817C49.3846 41.9893 45.9908 45.3846 41.8185 45.3846H16.183C12.0107 45.3846 8.61538 41.9893 8.61538 37.817V12.1815C8.61538 8.00918 12.0107 4.61388 16.183 4.61388H42.0769C42.2892 4.61388 42.4615 4.44157 42.4615 4.22927C42.4615 4.01696 42.2892 3.84465 42.0769 3.84465H16.183ZM20.552 13.8777C18.9466 13.8777 17.7816 15.0027 17.7816 16.5535C17.7816 18.1043 18.9227 19.2293 20.5234 19.2293C22.1288 19.2293 23.2954 18.1045 23.2954 16.5445C23.2569 14.9745 22.1274 13.8777 20.552 13.8777ZM20.552 14.6469C21.722 14.6469 22.4977 15.4004 22.5261 16.555C22.5269 17.6773 21.7041 18.4615 20.4979 18.4615C19.3525 18.4615 18.5508 17.6773 18.5508 16.555C18.5508 15.4319 19.3735 14.6469 20.552 14.6469ZM49.7692 15.3846C49.5569 15.3846 49.3846 15.5562 49.3846 15.7692V17.3077C49.3846 17.52 49.5569 17.6923 49.7692 17.6923C49.9815 17.6923 50.1538 17.52 50.1538 17.3077V15.7692C50.1538 15.5569 49.9815 15.3846 49.7692 15.3846ZM49.7692 18.4615C49.5569 18.4615 49.3846 18.6338 49.3846 18.8462V21.9231C49.3846 22.1354 49.5569 22.3077 49.7692 22.3077C49.9815 22.3077 50.1538 22.1354 50.1538 21.9231V18.8462C50.1538 18.6331 49.9815 18.4615 49.7692 18.4615ZM34.9766 20.6746C33.2843 20.6846 31.9123 21.1898 30.9216 22.2521V21.1523C30.9216 20.94 30.7493 20.7677 30.537 20.7677H25.8645C25.7591 20.7677 25.6581 20.8103 25.585 20.8864C25.5127 20.9626 25.4753 21.0658 25.4799 21.1704C25.5422 22.5158 25.4799 35.6339 25.4799 35.7662C25.4791 35.8693 25.5195 35.9674 25.591 36.0397C25.6634 36.112 25.7614 36.1523 25.863 36.1523H30.5385C30.7508 36.1523 30.9231 35.98 30.9231 35.7677V27.6037C30.9231 27.1329 30.9683 26.7833 31.0583 26.5625C31.2452 26.101 31.8269 25.027 33.1992 25.027C35.2515 25.027 35.4739 27.1094 35.4739 28.0078L35.537 35.7707C35.5385 35.9823 35.7108 36.1523 35.9216 36.1523H40.537C40.7493 36.1523 40.9216 35.98 40.9216 35.7677V27.9387C40.9216 25.3772 40.2897 23.4471 39.0436 22.2025C38.0282 21.1887 36.6604 20.6746 34.9766 20.6746ZM18.2308 20.7692C18.0185 20.7692 17.8462 20.9415 17.8462 21.1538V35.7692C17.8462 35.9815 18.0185 36.1538 18.2308 36.1538H22.8462C23.0585 36.1538 23.2308 35.9815 23.2308 35.7692V21.1538C23.2308 20.9415 23.0585 20.7692 22.8462 20.7692H18.2308ZM34.9645 21.4453H34.9766C36.4496 21.4453 37.6358 21.8841 38.5012 22.7479C39.5974 23.8425 40.1538 25.5887 40.1538 27.9387V35.3846H36.3047L36.2431 28.0063C36.2431 25.6948 35.0776 24.2578 33.2007 24.2578C31.9238 24.2578 30.8562 25.011 30.3462 26.2725C30.2169 26.5895 30.1538 27.0244 30.1538 27.6037V35.3831H26.2506C26.2606 33.3093 26.2989 23.8669 26.2581 21.5385H30.1538V23.3098C30.1108 23.4183 30.1284 23.544 30.1869 23.6493C30.2554 23.7701 30.3992 23.8462 30.5385 23.8462C30.6985 23.8462 30.8353 23.7183 30.893 23.5652C31.4546 22.6421 32.4915 21.4453 34.9645 21.4453ZM18.6154 21.5385H22.4615V35.3846H18.6154V21.5385Z"/>
</mask>
<path d="M14 0C8.48615 0 4 4.48615 4 10V40C4 45.5138 8.48615 50 14 50H44C49.5138 50 54 45.5138 54 40V10C54 4.48538 49.5146 0 44 0H14ZM14 1.53846H44C48.6654 1.53846 52.4615 5.33462 52.4615 10V40C52.4615 44.6654 48.6654 48.4615 44 48.4615H14C9.33462 48.4615 5.53846 44.6654 5.53846 40V10C5.53846 5.33462 9.33462 1.53846 14 1.53846ZM16.183 3.84465C11.5861 3.84465 7.84615 7.58457 7.84615 12.1815V37.817C7.84615 42.4139 11.5861 46.1523 16.183 46.1523H41.8185C46.4154 46.1523 50.1538 42.4139 50.1538 37.817V23.4615C50.1538 23.2485 49.9815 23.0769 49.7692 23.0769C49.5569 23.0769 49.3846 23.2492 49.3846 23.4615V37.817C49.3846 41.9893 45.9908 45.3846 41.8185 45.3846H16.183C12.0107 45.3846 8.61538 41.9893 8.61538 37.817V12.1815C8.61538 8.00918 12.0107 4.61388 16.183 4.61388H42.0769C42.2892 4.61388 42.4615 4.44157 42.4615 4.22927C42.4615 4.01696 42.2892 3.84465 42.0769 3.84465H16.183ZM20.552 13.8777C18.9466 13.8777 17.7816 15.0027 17.7816 16.5535C17.7816 18.1043 18.9227 19.2293 20.5234 19.2293C22.1288 19.2293 23.2954 18.1045 23.2954 16.5445C23.2569 14.9745 22.1274 13.8777 20.552 13.8777ZM20.552 14.6469C21.722 14.6469 22.4977 15.4004 22.5261 16.555C22.5269 17.6773 21.7041 18.4615 20.4979 18.4615C19.3525 18.4615 18.5508 17.6773 18.5508 16.555C18.5508 15.4319 19.3735 14.6469 20.552 14.6469ZM49.7692 15.3846C49.5569 15.3846 49.3846 15.5562 49.3846 15.7692V17.3077C49.3846 17.52 49.5569 17.6923 49.7692 17.6923C49.9815 17.6923 50.1538 17.52 50.1538 17.3077V15.7692C50.1538 15.5569 49.9815 15.3846 49.7692 15.3846ZM49.7692 18.4615C49.5569 18.4615 49.3846 18.6338 49.3846 18.8462V21.9231C49.3846 22.1354 49.5569 22.3077 49.7692 22.3077C49.9815 22.3077 50.1538 22.1354 50.1538 21.9231V18.8462C50.1538 18.6331 49.9815 18.4615 49.7692 18.4615ZM34.9766 20.6746C33.2843 20.6846 31.9123 21.1898 30.9216 22.2521V21.1523C30.9216 20.94 30.7493 20.7677 30.537 20.7677H25.8645C25.7591 20.7677 25.6581 20.8103 25.585 20.8864C25.5127 20.9626 25.4753 21.0658 25.4799 21.1704C25.5422 22.5158 25.4799 35.6339 25.4799 35.7662C25.4791 35.8693 25.5195 35.9674 25.591 36.0397C25.6634 36.112 25.7614 36.1523 25.863 36.1523H30.5385C30.7508 36.1523 30.9231 35.98 30.9231 35.7677V27.6037C30.9231 27.1329 30.9683 26.7833 31.0583 26.5625C31.2452 26.101 31.8269 25.027 33.1992 25.027C35.2515 25.027 35.4739 27.1094 35.4739 28.0078L35.537 35.7707C35.5385 35.9823 35.7108 36.1523 35.9216 36.1523H40.537C40.7493 36.1523 40.9216 35.98 40.9216 35.7677V27.9387C40.9216 25.3772 40.2897 23.4471 39.0436 22.2025C38.0282 21.1887 36.6604 20.6746 34.9766 20.6746ZM18.2308 20.7692C18.0185 20.7692 17.8462 20.9415 17.8462 21.1538V35.7692C17.8462 35.9815 18.0185 36.1538 18.2308 36.1538H22.8462C23.0585 36.1538 23.2308 35.9815 23.2308 35.7692V21.1538C23.2308 20.9415 23.0585 20.7692 22.8462 20.7692H18.2308ZM34.9645 21.4453H34.9766C36.4496 21.4453 37.6358 21.8841 38.5012 22.7479C39.5974 23.8425 40.1538 25.5887 40.1538 27.9387V35.3846H36.3047L36.2431 28.0063C36.2431 25.6948 35.0776 24.2578 33.2007 24.2578C31.9238 24.2578 30.8562 25.011 30.3462 26.2725C30.2169 26.5895 30.1538 27.0244 30.1538 27.6037V35.3831H26.2506C26.2606 33.3093 26.2989 23.8669 26.2581 21.5385H30.1538V23.3098C30.1108 23.4183 30.1284 23.544 30.1869 23.6493C30.2554 23.7701 30.3992 23.8462 30.5385 23.8462C30.6985 23.8462 30.8353 23.7183 30.893 23.5652C31.4546 22.6421 32.4915 21.4453 34.9645 21.4453ZM18.6154 21.5385H22.4615V35.3846H18.6154V21.5385Z" stroke="white" stroke-width="2" shape-rendering="crispEdges" mask="url(#path-1-inside-1_2_2381)"/>
</g>
<defs>
<filter id="filter0_d_2_2381" x="0" y="0" width="58" height="58" filterUnits="userSpaceOnUse" color-interpolation-filters="sRGB">
<feFlood flood-opacity="0" result="BackgroundImageFix"/>
<feColorMatrix in="SourceAlpha" type="matrix" values="0 0 0 0 0 0 0 0 0 0 0 0 0 0 0 0 0 0 127 0" result="hardAlpha"/>
<feOffset dy="4"/>
<feGaussianBlur stdDeviation="2"/>
<feComposite in2="hardAlpha" operator="out"/>
<feColorMatrix type="matrix" values="0 0 0 0 0 0 0 0 0 0 0 0 0 0 0 0 0 0 0.25 0"/>
<feBlend mode="normal" in2="BackgroundImageFix" result="effect1_dropShadow_2_2381"/>
<feBlend mode="normal" in="SourceGraphic" in2="effect1_dropShadow_2_2381" result="shape"/>
</filter>
</defs>
</svg>
