<svg width="37" height="32" viewBox="0 0 37 32" fill="none" xmlns="http://www.w3.org/2000/svg">
<g filter="url(#filter0_d_2_9)">
<path d="M23.5585 16.206L24.2037 15.6777L22.7053 14.4367L22.0602 14.9651L23.5585 16.206ZM26.3707 15.4563L29.0772 16.668L30.0921 15.1306L27.3856 13.9189L26.3707 15.4563ZM29.5983 19.0763L27.5858 20.7242L29.084 21.9652L31.0965 20.3173L29.5983 19.0763ZM26.3595 21.2548C24.3055 21.4124 18.9913 21.2719 13.2376 16.5605L11.7393 17.8015C18.018 22.9428 23.9939 23.1939 26.5567 22.9972L26.3595 21.2548ZM13.2376 16.5605C7.75313 12.0695 6.84464 8.29224 6.73154 6.65354L4.60997 6.75284C4.75229 8.81531 5.87722 13.0013 11.7393 17.8015L13.2376 16.5605ZM15.186 9.35013L15.5923 9.01741L14.094 7.77646L13.6877 8.10917L15.186 9.35013ZM15.9157 4.77633L14.1293 2.8112L12.4282 3.85996L14.2145 5.82511L15.9157 4.77633ZM8.12122 2.38347L5.89762 4.20428L7.39595 5.44524L9.61955 3.62443L8.12122 2.38347ZM14.4368 8.72965C13.6877 8.10917 13.6867 8.11 13.6856 8.11084C13.6853 8.11112 13.6843 8.11197 13.6836 8.11254C13.6822 8.1137 13.6808 8.11486 13.6793 8.11607C13.6765 8.11848 13.6735 8.12099 13.6704 8.1236C13.6643 8.12884 13.6578 8.13451 13.651 8.14062C13.6373 8.15284 13.6223 8.16682 13.6062 8.1826C13.5741 8.21416 13.5377 8.25302 13.4995 8.29951C13.4228 8.39272 13.3392 8.51595 13.2683 8.67093C13.1237 8.98716 13.0461 9.40402 13.1433 9.92021C13.3335 10.9297 14.1777 12.2632 16.3403 14.0339L17.8385 12.793C15.8148 11.1358 15.3327 10.1273 15.2432 9.65192C15.2005 9.42567 15.2447 9.31431 15.2569 9.28795C15.2643 9.27164 15.2678 9.26997 15.2588 9.28111C15.2542 9.28656 15.2467 9.29509 15.235 9.30658C15.2292 9.31233 15.2222 9.31884 15.2141 9.3261C15.21 9.32973 15.2058 9.33354 15.201 9.33754C15.1987 9.33955 15.1963 9.34159 15.1937 9.34369C15.1925 9.34474 15.1912 9.3458 15.1899 9.34688C15.1894 9.34741 15.1884 9.34823 15.1879 9.3485C15.1869 9.34931 15.186 9.35013 14.4368 8.72965ZM16.3403 14.0339C18.5035 15.8053 20.1303 16.4947 21.3581 16.6498C21.9855 16.7291 22.4914 16.6658 22.8752 16.5481C23.0633 16.4904 23.2132 16.4223 23.3265 16.3598C23.3832 16.3285 23.4305 16.2988 23.4689 16.2725C23.4882 16.2595 23.5052 16.2472 23.5201 16.236C23.5276 16.2304 23.5345 16.2252 23.5409 16.2202C23.5441 16.2176 23.5471 16.2151 23.5501 16.2128C23.5515 16.2116 23.5529 16.2105 23.5543 16.2093C23.5551 16.2087 23.5562 16.2079 23.5565 16.2077C23.5575 16.2069 23.5585 16.206 22.8093 15.5855C22.0602 14.9651 22.0612 14.9642 22.0622 14.9634C22.0625 14.9632 22.0634 14.9624 22.0642 14.9618C22.0654 14.9607 22.0667 14.9597 22.068 14.9586C22.0707 14.9567 22.0731 14.9547 22.0755 14.9527C22.0804 14.9488 22.0851 14.9453 22.0895 14.942C22.0983 14.9354 22.1062 14.9297 22.1133 14.925C22.1272 14.9155 22.1375 14.9094 22.1439 14.9058C22.1571 14.8986 22.1544 14.9018 22.1334 14.9082C22.0987 14.9189 21.9597 14.9554 21.6804 14.92C21.0949 14.8462 19.8617 14.4495 17.8385 12.793L16.3403 14.0339ZM14.1293 2.8112C12.6853 1.22268 9.84577 0.971318 8.12122 2.38347L9.61955 3.62443C10.3728 3.00765 11.7105 3.07043 12.4282 3.85996L14.1293 2.8112ZM6.73154 6.65354C6.70368 6.24975 6.92856 5.82795 7.39595 5.44524L5.89762 4.20428C5.13642 4.82759 4.53799 5.70994 4.60997 6.75284L6.73154 6.65354ZM27.5858 20.7242C27.1965 21.043 26.7791 21.2226 26.3595 21.2548L26.5567 22.9972C27.5974 22.9173 28.4501 22.4843 29.084 21.9652L27.5858 20.7242ZM15.5923 9.01741C16.987 7.87534 17.0907 6.06887 15.9157 4.77633L14.2145 5.82511C14.7862 6.45392 14.7012 7.27926 14.094 7.77646L15.5923 9.01741ZM29.0772 16.668C30.2358 17.1867 30.4163 18.4064 29.5983 19.0763L31.0965 20.3173C32.9953 18.7624 32.4098 16.1681 30.0921 15.1306L29.0772 16.668ZM24.2037 15.6777C24.7477 15.2322 25.6234 15.1219 26.3707 15.4563L27.3856 13.9189C25.8505 13.2316 23.9453 13.4214 22.7053 14.4367L24.2037 15.6777Z" fill="white"/>
</g>
<defs>
<filter id="filter0_d_2_9" x="-4" y="0" width="42" height="36" filterUnits="userSpaceOnUse" color-interpolation-filters="sRGB">
<feFlood flood-opacity="0" result="BackgroundImageFix"/>
<feColorMatrix in="SourceAlpha" type="matrix" values="0 0 0 0 0 0 0 0 0 0 0 0 0 0 0 0 0 0 127 0" result="hardAlpha"/>
<feOffset dy="4"/>
<feGaussianBlur stdDeviation="2"/>
<feComposite in2="hardAlpha" operator="out"/>
<feColorMatrix type="matrix" values="0 0 0 0 0 0 0 0 0 0 0 0 0 0 0 0 0 0 0.25 0"/>
<feBlend mode="normal" in2="BackgroundImageFix" result="effect1_dropShadow_2_9"/>
<feBlend mode="normal" in="SourceGraphic" in2="effect1_dropShadow_2_9" result="shape"/>
</filter>
</defs>
</svg>
